/* XPM */
static char *result[] = {
/* columns rows colors chars-per-pixel */
"50 50 97 2 ",
"   c #3F190B",
".  c #451B0B",
"X  c #4B1C0C",
"o  c #46210D",
"O  c #4D230F",
"+  c #4D2314",
"@  c #4F2816",
"#  c #532512",
"$  c #552A14",
"%  c #552B19",
"&  c #573017",
"*  c #603726",
"=  c #9D2F13",
"-  c #8C3713",
";  c #9F3213",
":  c #913C16",
">  c #A03414",
",  c #A43C16",
"<  c #A43D18",
"1  c #BD3615",
"2  c #BE3A15",
"3  c #C13E16",
"4  c #C13F18",
"5  c #94431B",
"6  c #A64317",
"7  c #A84517",
"8  c #A64518",
"9  c #A94419",
"0  c #A74819",
"q  c #AA4B1A",
"w  c #AD521D",
"e  c #B0541E",
"r  c #B25D21",
"t  c #9A6225",
"y  c #B36323",
"u  c #B56C27",
"i  c #B76E29",
"p  c #B67027",
"a  c #B6752A",
"s  c #BA7B2F",
"d  c #C24117",
"f  c #C44419",
"g  c #C64A1A",
"h  c #C84D1A",
"j  c #C6511E",
"k  c #CA531C",
"l  c #CD5B1F",
"z  c #CF621F",
"x  c #C95720",
"c  c #CE5E20",
"v  c #D05F20",
"b  c #CF6121",
"n  c #D16422",
"m  c #D36B25",
"M  c #D46F28",
"N  c #D67227",
"B  c #D67429",
"V  c #D87729",
"C  c #D77A2B",
"Z  c #D97C2B",
"A  c #D87F30",
"S  c #D7802E",
"D  c #DA832E",
"F  c #DC892F",
"G  c #D78332",
"H  c #DB8630",
"J  c #DC8C32",
"K  c #DE9335",
"L  c #DF9937",
"P  c #DE9439",
"I  c #DF9939",
"U  c #E09636",
"Y  c #E09936",
"T  c #E09C3A",
"R  c #E2A33D",
"E  c #E2A541",
"W  c #E4AC43",
"Q  c #E5AF48",
"!  c #E5B346",
"~  c #E6B649",
"^  c #E7B94C",
"/  c #E8BD4D",
"(  c #E8BD51",
")  c #E9C04E",
"_  c #EAC452",
"`  c #EAC855",
"'  c #EAC759",
"]  c #ECCD59",
"[  c #ECD15B",
"{  c #EED563",
"}  c #EEDB62",
"|  c #F0DB69",
" . c #F2EA70",
".. c #F3F173",
"X. c #F5F27B",
"o. c #F7F87E",
"O. c #F8FC83",
/* pixels */
"* % + + + + + + O O O + + + + + + @ @ @ @ @ @ + @ + # + + + + + + + + + + + + + + + + + + $ @ @ @ @ ",
"% 5 q q q 9 < ; = = = = = = > < q q e r y y y y y w q q q q q < = = = = = = ; ; = = > < y r u a t o ",
"# q v l k k d 2 1 1 1 1 3 4 3 f x x n B C Z Z Z B n x l k x x f 3 3 3 3 1 1 1 1 4 1 4 j V V D J a o ",
"$ w n l k k d 2 1 1 1 1 3 4 f h n m M A F F D D C m l x x k j g 4 3 3 4 4 4 4 1 1 1 4 j Z C Z V y o ",
"$ r m n k k f 2 3 1 3 3 f h k l V V D F Y U K F H N b c k k k g f g f 4 3 3 3 3 4 4 f x A Z M v 0 . ",
"$ r m n k k f 3 3 3 1 1 f k k v V V D J U U K K H B l l l k k h f f f 4 3 3 3 3 3 4 4 x Z Z m v 8 . ",
"$ e n l h h f 3 4 d d d h v v n V V D F F F D F S B m m m m m N A B M n v k 4 4 4 f f h m m v v 0 . ",
"$ q l k g g f d f f f g k v n m Z Z Z D D D Z Z C B N N C Z G P E E H A V v g g f g g g x k x k 0 . ",
"# q l k d d h f f f h h l n m m Z D Z Z Z Z V B B C B V D D F R ~ ~ Y U A N g g h 3 g h h h k k 7 . ",
"# q k h h h h k k l l l n m M B F H H H H D B B N N N V D F K W ` ` Q T U Z k v h g g h h h h h 6 . ",
"# 9 k k k k n N V V Z Z Z Z Z D T Y U T U U B M m n z n D H I ' ....{ ] ( E V N l h f f g 3 g 3 ; . ",
"# 9 k h h h m N V V Z Z Z Z Z F Y T T T T J B m m n z z D H I '  .X.{ ' _ W M N k g f f g 3 3 3 ; . ",
"# 9 k k k k m N V D F F F F D F T T T T U P M M m m n n B Z J E ' ' ( Q W U N N v k h h g 3 3 3 ; . ",
"# < h h h k N Z D F U U U U K U T Y T Y U P B m m m m m M M C J T R P P U Z N N v v k k g h h 3 ; . ",
"# 9 h h k k N Z D F Y R Y Y Y Y T T Y T U P M m m m m m m m M C H J H A Z Z N N v v v k h h f f ; . ",
"# 9 k l v v N Z D K R R R T T R T R U U P H M m n m m m v n m B Z Z A Z Z V N N v v v v h h h 3 ; . ",
"# e m m Z Z D Z F I ) ) ^ ! ! ! ! ! T D N N z l l z c c x l l n n n m m m n v v l v l l k k g 3 ; . ",
"# e m B D D Z D F I ) ) ) ~ ! ! ~ ~ I D m m z l l l v x l l l v v n n n n v v v l l l l k k g 3 ; . ",
"$ r V D U J F D F I ) ) ~ ! ! ! W W P C m m l l l l k k v v v m N B N N M n l x l k l k h h f d ; . ",
"$ i J T W W I J J I ^ ~ ! R T T R R H m z z l k k k k k n n m D K U H F H B k k h h h f f d f 4 ; . ",
"& s T Q ) ) R K K R ~ ~ E I K K K K Z n k l k h h h h h n m C U W W T Y K C h h f f f 4 3 3 3 f > . ",
"& s T E / ^ I K K L W W I K J J J H C z l k k k x h g h m V D T ~ ~ R R U Z k k f f 4 f 3 3 3 d > . ",
"& i F U R T G B N N b m b c l l l l k k k h h h h h h h P E ~ { X.X.] _ ~ P h h f f 4 3 3 3 3 f , . ",
"$ i H J L L Z N m b c c k k j h k j j h h h h h h h h h T W ( | O.O.{ ' ^ P h g f 4 3 3 3 3 d g 6 . ",
"$ u A J U U V N m n v l k k h h h h h h h h h g g h h k R Q ( | O.o.[ _ W J h h 3 3 3 3 9 2 f g ,   ",
"$ y Z H U U V N N n k k k h j h h h h g h h h h h h h k E ^ _ |  . .^ E I A h h 3 3 3 3 3 3 f g , . ",
"$ r V Z J U Z V m z k h h h h h h h g g g h h g h h h l Q ) ` [ } } R J G m h h 3 3 3 3 3 3 f g 6 . ",
"$ r V Z J J V V m z h h h k h h h h h h h h h h h h k x Q _ ` [ } } E F Z M h h 3 3 3 3 3 3 f g ,   ",
"$ y V Z D D V m m z k l l k l l k k k l l k k j l l b n E ~ ~ ~ ! ! D m n z z k h k k k h f h k 6 . ",
"$ y Z Z Z Z N m m n l l l l l l l k l l l l l l l z m m R ! ! R R R V v z z k l l l z k h g h k 7 . ",
"$ y V V Z V m n z z l l l l l l l l l z l l l l l b n m T E R T Y Y m v l l l l l v z k h g k k 7 . ",
"$ y V V N N n v l l l k l l z l l z z z m m b b b b v v Z H H F Z D z k k k l l l z z z k k k l 0 . ",
"$ z Z N z z l l k k k k l v z z z z m N N N N z z z k k k k k l z v k f g g k k n n n v x k x v q o ",
"$ y N N m z l k k k k k l z n n z z m N Z Z m N m z h k k k k l z z h g g h x l n n m v k k x v q . ",
"$ e z z v v l l l v z z C H K J D D F F F F C N m z k h g g d g g g f f d g h h x k k x k k k v 0 o ",
"# q l l l l v v v z m m H T R R K K L K Y J S Z N z h h d d d d d d d d d f f g g g h h h h h v 0 . ",
"# q l l l l z c z n B B J E W W R T T Y Y U D V N z h h d d d d 3 3 3 3 d d f f g f g h k h k l 0 . ",
"# 7 k l v z v v b N K K E ~ ) ^ R W R T U J Z V m l h h d d d d d d 3 3 3 d f f f g g h k l l v w . ",
"# 7 k k z z z z m H _ _ [ } } [ ` _ ! T F F V N m k e f g g g g g g d 3 2 3 d d h h h k n z z n w . ",
"# 7 k l z z b z m H ) _ [ } } } _ _ ! R F F V N m k f f g g d g g f 3 3 2 d d d f g h k z z n n w o ",
"# 9 k k n n z v m H _ _ ] } } [ W W T J F Z N N n k f f g f f d f 4 3 1 3 3 3 3 f g h h v v n n w . ",
"# 9 k l n v n n m H _ _ [ } } ] K K J H D Z N m n h 3 4 f f g g f 4 3 3 1 1 3 3 4 4 f h n v n n w . ",
"# < k k v n v n m J _ _ ] } } ` F F D Z Z V N m n h 4 4 f h g g g f 3 3 1 3 3 1 4 4 f h v v v v q . ",
"# 9 k l v n v v b G / ) _ ] ] ^ Z C C B N N V N M n x x h h g g f f 3 3 1 1 1 1 4 4 f f l l l v q . ",
"# q x v v v l k x C Q ! W R T K k v k h h k F J U R E E m v k g 4 3 3 3 3 3 1 3 3 d d f g g h k 6 . ",
"# 9 k l l v k k l C Q ! R R T K v v k h g k F F U T R W m v k h 4 4 1 1 1 3 1 1 3 d d f g g h h 6 . ",
"# q k l k k j h j b A G A C C m h h g h h k Z F F U R T N m z k g d 3 1 1 1 1 3 3 3 d f f f g k 6 . ",
"# 9 k h h h f d f f x x h g g e f 9 f g h l V V D F U U Z N m z h g 3 1 1 1 3 3 3 3 4 d f d g h 6 . ",
"# : 7 6 , < > > > > > > ; ; = = = ; > , , 7 e y y p p p u y r w 6 6 > = = = ; ; ; ; > > > , , , : X ",
"# # X X X X X X X X X X X X X X X X X X X O O # # O O O O O O O O X X X X X X X X X X X X X X X . . "
};
