/* XPM */
static char *result[] = {
/* columns rows colors chars-per-pixel */
"50 50 184 2 ",
"   c #3F190B",
".  c #263238",
"X  c #2D3739",
"o  c #31373A",
"O  c #31383B",
"+  c #3C3B3C",
"@  c #451B0B",
"#  c #4B1C0C",
"$  c #4D230F",
"%  c #46210D",
"&  c #4D2314",
"*  c #4F2816",
"=  c #532512",
"-  c #552A14",
";  c #552B19",
":  c #573017",
">  c #5A2A2E",
",  c #4D2C31",
"<  c #473734",
"1  c #493A35",
"2  c #443F3E",
"3  c #4B3538",
"4  c #543235",
"5  c #563C33",
"6  c #5F3330",
"7  c #72272A",
"8  c #6B3C2F",
"9  c #66362B",
"0  c #7B332D",
"q  c #633433",
"w  c #673936",
"e  c #574034",
"r  c #5A4335",
"t  c #554A3A",
"y  c #4B4238",
"u  c #78472F",
"i  c #79492F",
"p  c #7C4B32",
"a  c #7A4235",
"s  c #695237",
"d  c #7D5333",
"f  c #594842",
"g  c #5F5C42",
"h  c #525542",
"j  c #694740",
"k  c #7D5647",
"l  c #765448",
"z  c #795548",
"x  c #5F6043",
"c  c #606044",
"v  c #A91E1F",
"b  c #B71C1C",
"n  c #9D2F13",
"m  c #9F3213",
"M  c #913C16",
"N  c #8C3713",
"B  c #A03414",
"V  c #A43C16",
"C  c #BD3615",
"Z  c #BE3A15",
"A  c #A41F20",
"S  c #852627",
"D  c #862827",
"F  c #902224",
"G  c #9B2022",
"H  c #9A3F22",
"J  c #803133",
"K  c #803934",
"L  c #9A3933",
"P  c #BF2121",
"I  c #B92D2E",
"U  c #A43032",
"Y  c #AE3C38",
"T  c #B83B37",
"R  c #A82324",
"E  c #C03E16",
"W  c #C13F18",
"Q  c #C42525",
"!  c #CC2B2B",
"~  c #C82727",
"^  c #D32F2F",
"/  c #94431B",
"(  c #A64317",
")  c #A54419",
"_  c #A94419",
"`  c #AA4B1B",
"'  c #A84718",
"]  c #AD521D",
"[  c #B0541E",
"{  c #9C4024",
"}  c #91502C",
"|  c #8C443B",
" . c #895F35",
".. c #985A33",
"X. c #8E472A",
"o. c #A34B22",
"O. c #A5562A",
"+. c #AC5A2C",
"@. c #B25D21",
"#. c #B1592F",
"$. c #A95935",
"%. c #85693B",
"&. c #81613A",
"*. c #976531",
"=. c #A9622F",
"-. c #B36323",
";. c #B56C27",
":. c #B76E29",
">. c #BF6F2E",
",. c #B6752A",
"<. c #B8772C",
"1. c #AB6530",
"2. c #B76B36",
"3. c #B86D37",
"4. c #A1793D",
"5. c #AF7737",
"6. c #B17C37",
"7. c #B07D3A",
"8. c #B87635",
"9. c #C24117",
"0. c #C44418",
"q. c #C64A1A",
"w. c #C84D1B",
"e. c #CA531C",
"r. c #CD5B1F",
"t. c #C6511E",
"y. c #CF621F",
"u. c #CE5E20",
"i. c #D05F20",
"p. c #CF6221",
"a. c #C5612A",
"s. c #D16321",
"d. c #D36B25",
"f. c #D46F28",
"g. c #D67327",
"h. c #D67529",
"j. c #D6792B",
"k. c #D97C2B",
"l. c #D87F30",
"z. c #8E4940",
"x. c #914B42",
"c. c #8C5742",
"v. c #895C46",
"b. c #876641",
"n. c #996542",
"m. c #877A47",
"M. c #877745",
"N. c #A57345",
"B. c #B2823C",
"V. c #DA832E",
"C. c #DC892F",
"Z. c #D78331",
"A. c #DB8631",
"S. c #DC8C32",
"D. c #DE9335",
"F. c #DF963A",
"G. c #DF9938",
"H. c #D0923A",
"J. c #C78836",
"K. c #E09636",
"L. c #E09936",
"P. c #E19B39",
"I. c #DFA13E",
"U. c #E2A33D",
"Y. c #89854F",
"T. c #A48F4B",
"R. c #B89B4B",
"E. c #A49650",
"W. c #D1AE4D",
"Q. c #C4AA54",
"!. c #E2A542",
"~. c #E4AB42",
"^. c #E5AF48",
"/. c #E6B145",
"(. c #E6B64A",
"). c #E8BC4C",
"_. c #E9C04E",
"`. c #EAC352",
"'. c #EAC855",
"]. c #EAC759",
"[. c #ECCE58",
"{. c #ECD05A",
"}. c #EED860",
"|. c #F3F173",
/* pixels */
"9 - & * & & & & & % & & & & & & * = & * * * * * * * & & * & & & & & & & & & & & & & & & - = * - * * ",
"; / ` ` ' ' V m m m n n n n B V o.` @.@.-.-.-.-.[ ] ' ' o.o.o.) B m n n B G n n n n n ) @.-.;.,.*.% ",
"= ] r.r.e.e._ E Z C C C Z E E 0.u.i.s.f.k.k.k.j.h.s.r.u.#.k k c.E C C E W Z Z Z Z Z Z t.g.h.l.D.,.% ",
"= [ p.r.e.e.W E C C C C W 0.0.w.s.s.h.k.C.V.V.V.k.d.r.r.#.z z c.W W W W W Z Z Z Z Z W t.k.k.k.h.-.@ ",
"- @.d.s.e.e.0.E Z Z Z Z 0.w.e.r.h.h.V.C.D.D.D.D.Z.h.a.a.$.z z c.0.0.0.W E E E E W Z _ e.l.k.d.i.' @ ",
"- [ g.i.e.e.0.E Z Z Z Z 0.e.e.u.h.h.V.D.D.L.D.D.A.2.z z l z z c.0.0.0.0.E E E E Z W Z u.k.k.d.i.' @ ",
"- [ s.r.w.w.0.E 9.9.9.9.w.u.i.s.k.k.k.V.S.C.C.V.l.3.l z z l z v.j.j.d.s.i.u.W W 0.0.0.w.d.s.i.i.' @ ",
"= [ r.e.q.q.0.0.0.0.0.q.e.i.s.d.k.k.k.V.V.V.j.k.j.3.l l v.n.n.N.!.!.S.l.h.i.q.0.q.q.q.w.r.r.i.e.' @ ",
"= ` r.e.9.q.0.0.0.w.w.w.u.s.d.f.k.V.k.k.j.j.j.j.h.3.z z n.A.S.U.(.(.K.S.A.f.0.q.q.q.q.w.w.w.e.r.' @ ",
"= ` e.e.q.w.w.e.e.e.r.r.s.d.f.h.A.A.A.A.A.Z.h.h.h.2.l l n.C.K.~.'.'.^.P.K.l.u.u.w.q.0.w.w.w.w.w.( @ ",
"= _ e.e.e.e.s.g.h.h.k.k.k.k.k.V.P.P.L.H.B.6.1.=.+. .l l b.5.N.W.|.|.}.{.).!.h.g.r.q.0.0.9.0.0.E m @ ",
"= V e.w.e.e.s.g.g.k.k.k.k.k.k.V.P.P.L.4.. . . . . f l l j . . h |.|.}.{.].!.h.f.e.q.0.0.0.9.0.E m @ ",
"= _ w.e.e.e.d.g.k.k.S.S.C.C.A.S.P.P.P.4.. . . . . 2 z z f . . h ].].(.^.~.F.g.g.i.e.w.w.0.0.0.E m @ ",
"= _ w.w.e.e.g.k.C.C.K.L.K.Z.6.6.B.6.B.*.4 4 3 + + f z z j , , w 8.T.7.7.5.f.g.g.s.r.e.e.w.0.0.0.m @ ",
"= V e.w.e.e.g.k.C.C.L.L.P.%.o o o o o w ^ ! Y l l l z z | b A G X X . X X t g.g.s.i.i.r.w.w.q.9.m @ ",
"= _ e.r.i.i.g.k.C.C.U.U.U.%.. . . . . q ^ ^ T l l l z z | b b G . . . . . y d.g.s.r.r.r.w.w.q.E m @ ",
"= [ s.f.k.k.k.k.l.P.W.R.R.v.4 4 4 4 4 J ^ ^ T x.x.x.| z.L P P A , , , , , q O.O.#.r.r.r.w.e.w.9.m @ ",
"- [ d.f.V.V.V.V.l.P.m.. . J ^ ^ ^ ^ ^ ^ ^ ^ ^ ^ ^ ~ b b Q ^ ^ ! b b b b b G . . 1 r.r.r.e.e.q.E m @ ",
"- @.j.A.K.S.C.V.A.P.M.. . 0 ^ ^ ^ ^ ^ ^ ^ ^ ^ ^ ^ ~ b b Q ^ ^ ^ b b b b b G . . 1 e.e.e.w.w.0.W m @ ",
"- >.S.L.~.~.P.S.D.P.M.. . J ^ ^ ^ ^ ^ ^ ^ ^ ^ ^ ^ ! P P ~ ^ ^ ! P P P b b G . . 1 w.q.q.0.0.0.0.m @ ",
": <.P./._._.U.D.K.P.M.. . J ^ ^ ^ ^ ^ ^ ^ ^ ^ ^ ^ ^ ^ ^ ^ ^ ^ ^ ^ ^ ! b b n . . 1 q.W W E E E W B @ ",
": <.L.~.).).P.D.S.P.b.. . J ^ ^ ^ ^ ^ ^ ^ ^ ^ ^ ^ ^ ^ ^ ^ ^ ^ ^ ^ ^ ! b b A . . 3 0.0.0.E E E 0.B @ ",
": :.S.D.P.P.V.3.1.1.p 4 4 L ^ ^ ^ ^ ^ ^ ^ ^ ^ ^ ^ ^ ^ ^ ^ ^ ^ ^ ^ ^ ! b b A , , q H H H E E E 0.V @ ",
"- :.A.S.K.P.k.d . . J ^ ^ ^ ^ ^ ^ ^ ^ ^ ^ ^ ^ ^ ^ ^ ^ ^ ^ ^ ^ ^ ^ ^ ! b b b b b G . . o E E 0.q.( @ ",
"- :.V.S.K.K.k.} . . J ^ ^ ^ ^ ^ ^ ^ ^ ^ ^ ^ ^ ^ ^ ^ ^ ^ ^ ^ ^ ^ ^ ^ ! b b b b b v . . o _ 9.9.q.V   ",
"- -.k.V.K.K.j.d . . J ^ ^ ^ ^ ^ ^ ^ ^ ^ ^ ^ ^ ^ ^ ^ ^ ^ ^ ^ ^ ^ ^ ^ ^ b b b b b G . . o E 9.9.q.V @ ",
"- @.g.l.S.D.k.d . . J ^ ^ ^ ^ ^ ^ ^ ^ ^ ^ ^ ^ ^ ^ ^ ^ ^ ^ ^ ^ ^ ^ ^ ^ b b b b b G . . o E E 9.q.( @ ",
"- @.g.l.D.D.j.d . . J ^ ^ ^ ^ ^ ^ ^ ^ ^ ^ ^ ^ ^ ^ ^ ^ ^ ^ ^ ^ ^ ^ ^ ^ b b b b b G . . + E E 9.q.V @ ",
"- @.g.k.k.A.h. .. . J ^ ^ ^ ^ ^ ^ ^ ^ ^ ^ ^ ^ ^ ^ ^ ^ ^ ^ ^ ^ ^ ^ ^ ! b b b b b G . . X q.q.q.e.( @ ",
"- -.k.k.k.k.d.p . . J ^ ^ ^ ^ ^ ^ ^ ^ ^ ^ ^ ^ ^ ^ ^ ^ ^ ^ ^ ^ ^ ^ ^ ! b b b b b G . . X q.q.e.e.( @ ",
"- -.j.k.k.j.d.p . . J ^ ^ ^ ^ ^ ^ ^ ^ ^ ^ ^ ^ ^ ^ ^ ^ ^ ^ ^ ^ ^ ^ ^ ~ b b b b b A . . X w.w.e.e.' @ ",
"- -.j.h.g.g.p.p . . J ^ ^ ^ ^ ^ ^ ^ ^ ^ ^ ^ ^ ^ ^ ^ ^ ^ ^ ^ ^ ^ ! ! ~ b b b b b G . . o e.e.e.r.' @ ",
"- -.k.g.y.s.i.u . . J ^ ^ ^ ^ ^ ^ ^ ^ ^ ^ ^ ^ ^ ^ ^ ^ ^ ^ ^ ^ ! b b b b b b b b A . . O e.e.i.i.` % ",
"- ;.g.g.y.y.r.i . . J ^ ^ ^ ^ ^ ^ ^ ^ ^ ^ ^ ^ ^ ^ ^ ^ ^ ^ ^ ^ ! b b b b b b b b G . . O e.e.u.i.` @ ",
"= [ y.y.i.i.i.} e e K U U I ! ! ^ ^ ^ ^ ^ ^ ^ ^ ^ ^ ^ ^ ^ ! ! ~ b b b b b A F F S 5 5 r e.w.e.u.' % ",
"= ` r.i.r.i.r.i.i.y.d . . 7 b b Q ^ ^ ^ ^ ^ ^ ^ ^ ^ ^ ^ ~ b b b b b b b b G . . 3 q.w.w.w.w.w.u.' % ",
"= ` r.r.r.r.i.i.y.d.d . . 7 b b Q ^ ^ ^ ^ ^ ^ ^ ^ ^ ^ ^ ! b b b b b b b b A . . 1 q.q.w.e.e.e.r.' % ",
"= _ e.r.i.i.i.i.y.g.&.. . 7 b b Q ! ! ! ! ~ ! ! ! ! ~ ! Q b b b b b b b b n . . 1 q.q.w.e.r.r.r.` @ ",
"= _ e.r.y.y.y.y.d.C.M.. . 7 b b b b b b b b b b b b b b b b b b b b b b b G . . 1 q.w.e.y.y.y.s.] % ",
"= _ w.r.y.y.y.y.d.A.M.. . 7 b b b b b b b b b b b b b b b b b b b b b b b G . . 1 q.w.e.y.y.s.s.` % ",
"= _ w.u.s.s.s.s.d.A.T.g x a F F A b b b b b v F F F F F n b b b b b b F n S 5 4 8 q.q.w.s.i.s.p.] @ ",
"= _ w.r.s.s.i.i.d.A.`.`.{.Y.. . 7 b b b b b S . . . . . > b b b b b G . . < Z E W 0.0.w.i.s.y.s.] @ ",
"= V e.e.s.s.i.i.s.A.`.`.{.Y.. . 7 b b b b b S . . . . . > b b b b b G . . + E C W W 0.q.i.i.y.s.` % ",
"= _ e.e.y.s.y.i.s.A.).`.`.E.x g 0 F F F F F 0 r r r 5 5 9 F F F F F S 4 4 9 C C E W 0.q.r.r.r.r.` @ ",
"- ` u.u.y.i.e.e.u.j././.^.U.U.S.i . . . . . s C.D.U.~.U.... . . . . < C E E C E E E 0.0.q.q.w.e.( @ ",
"= ` u.e.r.i.r.e.u.j.^.^.~.U.U.S.i . . . . X s S.F.P.~.U.... . . . . < C C C C C E 0.E 0.q.q.w.w.( @ ",
"= ` e.e.e.e.e.w.q.a.l.Z.l.j.h.d.X.5 5 5 5 e &.V.C.K.U.P.-.r r e 5 6 8 C C E C C E E W 0.0.0.q.e.( @ ",
"= _ e.w.w.w.0.9.9.0.t.u.w.q.q.[ 9.9.0.q.e.e.h.k.V.C.D.D.k.g.d.y.w.w._ C C C E E E E E 0.0.0.q.w.V @ ",
"= M _ _ V V V B m B m m m m n n n n B V _ _ [ -.;.;.;.;.;.-.[ ] ( ( B m n n m n m m m B V B V ( N # ",
"= # # # # # # # # # # # # # # # # # # # # # = = $ $ $ - $ $ $ $ $ $ # # # # # # # # # # # # # # # @ "
};
