/* XPM */
static char *result[] = {
/* columns rows colors chars-per-pixel */
"50 50 81 1 ",
"  c #0E0E0E",
". c #131313",
"X c #161C1F",
"o c #1C1D1D",
"O c #0F2D0F",
"+ c #0F330F",
"@ c #122D12",
"# c #1C251C",
"$ c #1D2D1D",
"% c #173B17",
"& c #1A331A",
"* c #1A3D1E",
"= c #121B23",
"- c #1B1F22",
"; c #122322",
": c #1C2125",
"> c #142D25",
", c #1D252B",
"< c #153224",
"1 c #1B3822",
"2 c #1B332F",
"3 c #1B3B2D",
"4 c #172430",
"5 c #1E2A34",
"6 c #1E2E3A",
"7 c #1E3534",
"8 c #1C3B32",
"9 c #1E323C",
"0 c #212122",
"q c #272C2B",
"w c #2E2E2F",
"e c #243B24",
"r c #2C372F",
"t c #262C32",
"y c #202F3C",
"u c #2D3133",
"i c #213B35",
"p c #25313A",
"a c #2A333A",
"s c #333333",
"d c #323C35",
"f c #313538",
"g c #36393C",
"h c #3B3C3D",
"j c #0F520F",
"k c #144616",
"l c #124D13",
"z c #15421F",
"x c #1B421B",
"c c #15491D",
"v c #115511",
"b c #115A12",
"n c #17571B",
"m c #1C5D1C",
"M c #136413",
"N c #156B15",
"B c #1B631D",
"V c #196B1A",
"C c #167417",
"Z c #177817",
"A c #177518",
"S c #197519",
"D c #177B18",
"F c #197A19",
"G c #174026",
"H c #1D4D29",
"J c #1C5323",
"K c #1D5C22",
"L c #1B512B",
"P c #214722",
"I c #234B23",
"U c #244C2B",
"Y c #215524",
"T c #225028",
"R c #2E592F",
"E c #2B4830",
"W c #304634",
"Q c #2D782E",
"! c gray25",
"~ c #1E8A1F",
"^ c None",
/* pixels */
"^^^^^^^^^^^^^^^^^^^^^^^^^^^^^^^^^^^^^^^^^^^^^^^^^^",
"^^^^^^^^^^^^^^^^^^^^^^^^^^^^^^^^^^^^^^^^^^^^^^^^^^",
"^^^^^^^^^^^^^^^^^^^^^^. ..o-00^^^^^^^^^^^^^^^^^^^^",
"^^^^^^^^^^^^^^^^^^^^^^. +O@%&&$^^^^^^^^^^^^^^^^^^^",
"^^^^^^^^^^^^^^^^^^^^^^lObmRkVI^^^^^^^^^^^^^^^^^^^^",
"^^^^^^^^^^^^^^^^^^^^^bbjMFCCNC^^^^^^^^^^^^^^^^^^^^",
"^^^^^^^^^^^^^^^^^NVNCDNvNZFACS^^^^^^^^^^^^^^^^^^^^",
"^^^^^^^^^^^^^bMCFDDDFDCNbNAFSS^^^^^^^^^^^^^^^^^^^^",
"^^^^^^^^^bbSZDDCCZDZZDCDZCCjNDFS^^^^^^^^^^^^^^^^^^",
"^^^^^^^bbNDFDDDDCCCCCZCZCCCCZCCCZDFF^^^^^^^^^^^^^^",
"^^^^^^bbMDDDDDDDDDCDDDDDDDDZDDZDDCZDF^^^^^^^^^^^^^",
"^^^^^^bbZDDDDDDDDZCDDDDDDDDDDCDDDDCDF^^^^^^^^^^^^^",
"^^^^^^jMDDDDDDDDNMCDDDDDDDDDDCDDZDCZF^^^^^^^^^^^^^",
"^^^^^bjbDDDDDZCCZbvbNCCNCZZCCbCCCNNDS^^^^^^^^^^^^^",
"^^^^^bbMCDDDZDDDDNNNNbbbMMNMMNNMMMADD^^^^^^^^^^^^^",
"^^^^^bbADDDDDDDDDCDZDDDDDDDZFCDDDCFDC^^^^^^^^^^^^^",
"^^^^^bvCDCDDDDDDDCDDCCDCCCCCNNCCCNDDC^^^^^^^^^^^^^",
"^^^^^^bCDDCCDDDDCCDCCDNCDDDDZCDCNCDDC^^^^^^^^^^^^^",
"^^^^^vbDDDDDCNMmjCDDDADCNNNNMNCCNNNMCDF^^^^^^^^^^^",
"^^^^^vjCDDDDDCMQBMDDDCCDDDZDCDDCCbvCDDF^^^^^^^^^^^",
"^^^^^bbvNDDDDDDDKjMFZDDAFFDDCDDCFbMCDDFF^^^^^^^^^^",
"^^^^^bbbZCDDDDDDlMZFDZADCFDDDDDCFbbNDFFF^^^^^^^^^^",
"^^^^^^bbCDDDDDDCqdEEUUUJKJKnKKJHTIvbNDDF^^^^^^^^^^",
"^^^^^^bbCZDDDDDC1afggghhhhh000qhgdlbbDDS^^^^^^^^^^",
"^^^^^^^^bFFDDDDDAKL7pay0:::o0ooo56zvMDD^^^^^^^^^^^",
"^^^^^^^^bbCDDDDDDDFV965ooooooooo,61vCDDF^^^^^^^^^^",
"^^^^^^^^^bCDDDDDDDDCB6oooooooooo:prnCDDA^^^^^^^^^^",
"^^^^^^^^^vMZDDDCDDFNDnooooo..ooo-56kNCND^^^^^^^^^^",
"^^^^^^^^^^bbFFFACDACFSoooo. .ooo-6ycNNFF^^^^^^^^^^",
"^^^^^^^^^^^bbNNAAADAC~#ooo  ooooo6aYCNF^^^^^^^^^^^",
"^^^^^^^^^^^^bjMNCDCAVxooo   ooooo66GCS^^^^^^^^^^^^",
"^^^^^^^^^^^^^eePHHH*oooo.  .oooo-6p^^^^^^^^^^^^^^^",
"^^^^^^^^^^^^^wshga5oooo^^.  oooo-6g^^^^^^^^^^^^^^^",
"^^^^^^^^^^^^wwwshpoXo.^^^^  .ooo:5u^^^^^^^^^^^^^^^",
"^^^^^^^^^^^swwwha,oo.^^^^^     o,pg^^^^^^^^^^^^^^^",
"^^^^^^^^^^swwwqs4.ooo^^^^^      =t!!^^^^^^^^^^^^^^",
"^^^^^^^^^^wrwwwyXooo0^^^^^    .o5f!!^^^^^^^^^^^^^^",
"^^^^^^^^^<><<>3i83388^^^^;;;;;777iii^^^^^^^^^^^^^^",
"^^^^^^^^^bbjbbFADDDDS^^^^lvvvMSCACAA^^^^^^^^^^^^^^",
"^^^^^^^^^vbjbNDDDCDD^^^^^bbbbMCADDAD^^^^^^^^^^^^^^",
"^^^^^^^^^^bbjZDDDFFF^^^^^^bbjbCDDDDS^^^^^^^^^^^^^^",
"^^^^^^^^^^bbbZDDDDS^^^^^^^^bbNDDDDDF^^^^^^^^^^^^^^",
"^^^^^^^^^^bvNDZZDD^^^^^^^^^bjNZDDDDS^^^^^^^^^^^^^^",
"^^^^^^^^^^vMZDDDDFS^^^^^^^^bjCDDDDDDDF^^^^^^^^^^^^",
"^^^^^^^^^bbCDDDDDCV^^^^^^^^bjCCDDDDDDDD^^^^^^^^^^^",
"^^^^^^^^bbMDDDDDDDF^^^^^^^^bbCDDDDDDCADDF^^^^^^^^^",
"^^^^^^^^bbCCZCCCZDC^^^^^^^bbM~DDDDDDDCNCNNV^^^^^^^",
"^^^^^^nvbCFNFAADFCA^^^^^^^bbMFFDADDDDZZ~DSACV^^^^^",
"^^^^^^^^^^^^^^^^^^^^^^^^^^^^^^^^^^^^^^^^^^^^^^^^^^",
"^^^^^^^^^^^^^^^^^^^^^^^^^^^^^^^^^^^^^^^^^^^^^^^^^^"
};
