/* XPM */
static char *result[] = {
/* columns rows colors chars-per-pixel */
"50 50 248 2 ",
"   c #150F0B",
".  c #17110D",
"X  c #1B1512",
"o  c #1E1A16",
"O  c #191716",
"+  c #0E0A09",
"@  c #221A0F",
"#  c #2D120A",
"$  c #231B15",
"%  c #231E1A",
"&  c #2A1E18",
"*  c #281A14",
"=  c #26211D",
"-  c #2B231D",
";  c #34241C",
":  c #3B261E",
">  c #3C2A1D",
",  c #39261A",
"<  c #1C1E22",
"1  c #252323",
"2  c #2A2622",
"3  c #2E2923",
"4  c #2E2B29",
"5  c #332C25",
"6  c #3C2D23",
"7  c #332E2A",
"8  c #3A2F29",
"9  c #3A3126",
"0  c #35312A",
"q  c #3C342B",
"w  c #3B352A",
"e  c #3D3631",
"r  c #3E3A33",
"t  c #363130",
"y  c #56200E",
"u  c #492A1A",
"i  c #562716",
"p  c #51341E",
"a  c #4A351E",
"s  c #7A2D14",
"d  c #65321C",
"f  c #78381B",
"g  c #6B2815",
"h  c #432D23",
"j  c #462F25",
"k  c #443325",
"l  c #4B3425",
"z  c #4D3A24",
"x  c #43352B",
"c  c #4A352A",
"v  c #43392E",
"b  c #4C3C2C",
"n  c #533423",
"m  c #543B24",
"M  c #5A3D24",
"N  c #543B2C",
"B  c #5B3C2B",
"V  c #573626",
"C  c #433B33",
"Z  c #4A3E33",
"A  c #473B35",
"S  c #573E32",
"D  c #633B25",
"F  c #673C28",
"G  c #723C22",
"H  c #753D24",
"J  c #623F31",
"K  c #3F403D",
"L  c #5B4125",
"P  c #54432D",
"I  c #5C4429",
"U  c #5A4628",
"Y  c #464136",
"T  c #4C4234",
"R  c #464139",
"E  c #4D443A",
"W  c #4E4B3D",
"Q  c #534434",
"!  c #5B4334",
"~  c #5B4A35",
"^  c #51453B",
"/  c #544A3C",
"(  c #5B4C3C",
")  c #584836",
"_  c #5D513D",
"`  c #4E412F",
"'  c #63432D",
"]  c #6C442C",
"[  c #644A2D",
"{  c #6B492A",
"}  c #664427",
"|  c #7C4425",
" . c #73442B",
".. c #744B2D",
"X. c #794629",
"o. c #7B512D",
"O. c #664432",
"+. c #6C4532",
"@. c #644C34",
"#. c #6B4D32",
"$. c #634C3B",
"%. c #6D4C3A",
"&. c #744731",
"*. c #744B33",
"=. c #7A4C33",
"-. c #734D3A",
";. c #7B4C39",
":. c #655233",
">. c #6B5234",
",. c #63523C",
"<. c #6B553C",
"1. c #6C5A3E",
"2. c #7C5333",
"3. c #74533D",
"4. c #7D533B",
"5. c #7A5B3D",
"6. c #755637",
"7. c #64502D",
"8. c #77633F",
"9. c #4B4741",
"0. c #554C42",
"q. c #5A4E42",
"w. c #5B4F48",
"e. c #5C5344",
"r. c #5C5549",
"t. c #595346",
"y. c #585A56",
"u. c #645543",
"i. c #6A5643",
"p. c #655945",
"a. c #6B5A44",
"s. c #64554A",
"d. c #645A4C",
"f. c #6B5D4B",
"g. c #6E5648",
"h. c #725C43",
"j. c #7B5B44",
"k. c #765946",
"l. c #675C51",
"z. c #6B5445",
"x. c #6E614B",
"c. c #65604E",
"v. c #74644B",
"b. c #7B654B",
"n. c #79664A",
"m. c #6C6354",
"M. c #6C6759",
"N. c #716351",
"B. c #7C6B53",
"V. c #746B5B",
"C. c #7C6D5A",
"Z. c #786754",
"A. c #7D715C",
"S. c #7A794D",
"D. c #757264",
"F. c #716F64",
"G. c #843E1E",
"H. c #8A3716",
"J. c #953A1C",
"K. c #A13C18",
"L. c #823F22",
"P. c #9C431D",
"I. c #87401F",
"U. c #A7451E",
"Y. c #844424",
"T. c #824C2C",
"R. c #894A27",
"E. c #974924",
"W. c #89522B",
"Q. c #99552A",
"!. c #824E33",
"~. c #8A4E37",
"^. c #845234",
"/. c #83553B",
"(. c #8A563B",
"). c #8C5A3C",
"_. c #885937",
"`. c #925533",
"'. c #945D3A",
"]. c #995B39",
"[. c #A44D25",
"{. c #A5592A",
"}. c #A45C32",
"|. c #B34E23",
" X c #8A623A",
".X c #9E623D",
"XX c #97673E",
"oX c #AA622A",
"OX c #B3642A",
"+X c #AA673B",
"@X c #B76A35",
"#X c #BF7237",
"$X c #C3743D",
"%X c #CA5722",
"&X c #8B5B41",
"*X c #835B44",
"=X c #935C40",
"-X c #89664A",
";X c #936346",
":X c #9C6343",
">X c #97694A",
",X c #826E53",
"<X c #876E57",
"1X c #837155",
"2X c #85745A",
"3X c #8C7A5D",
"4X c #8C7458",
"5X c #987957",
"6X c #936A52",
"7X c #A66D48",
"8X c #AB7448",
"9X c #B77749",
"0X c #A87856",
"qX c #8D7B62",
"wX c #897B6A",
"eX c #917E60",
"rX c #A97A63",
"tX c #C87A44",
"yX c #D37C44",
"uX c #7B807B",
"iX c #888957",
"pX c #AA855B",
"aX c #B68D58",
"sX c #B7854B",
"dX c #948163",
"fX c #98866A",
"gX c #8A8776",
"hX c #958873",
"jX c #988E73",
"kX c #A38C6A",
"lX c #B99363",
"zX c #A28E72",
"xX c #A79577",
"cX c #B29C78",
"vX c #AF8F68",
"bX c #B8A07F",
"nX c #D78547",
"mX c #C59455",
"MX c #C6A16E",
"NX c #95948A",
"BX c #91938E",
"VX c #A49888",
"CX c #A9A18A",
"ZX c #B7A689",
"AX c #B6AA99",
"SX c #BEB6A9",
"DX c #C0B3A3",
"FX c #D3C9B7",
/* pixels */
"t A E A R q m.ZXFXNXr.,.~ / u.f.i.f.g.s.s.q.$.f.,Xs.@ @ @ @ ( q.( d.s.^ q.^ w.q.^ w.l.q.E s.0.E e 7 ",
"r 0.A A l.R s.wXdXV.r.S.n.( _ W ^ ^ ^ 0.^ @ $ @ @ $ @ @ @ @ q.u.e.@ @ @ @ @ 0.w.E 0.w.l.w.E / E x 7 ",
"9.w.E w.M.V.gXwXwXiXiXiXfXjXZXSXAXAXCXVXjX@ @ @ @ @ @ @ @ @ @ @ @ @ @ @ @ @ wXwX0.l.Z.Z.M.s.d.s.w.R ",
"A V.wXF.s.u.u.$.~ ~ :.U ~ 7.:.:.<.~ ( ! ` P Q P z w @ @ @ @ @ @ @ @ @ @ @ @ ! b b ! Q S U a.CXfXd.S ",
"C f.CXDXZ.I z N m , L L I L } @ $ @ U L U L m L L p @ @ @ @ l m L L m L L I L m a m [ } L 2X@ @ $ S ",
"d.gXVXNXfX,.P ) 1.>.v.8.8.>.n.X @ @ :.>.@.U U U 7.U @ @ @ @ z U :.:.7.6.[ >.:.[ U @.>.:.z _ @ @ @ t ",
"A V.hXC.fX~ X   , m #.>.D p {  Xo.{ } o.#.{ [ M L z z L ..L L 2.8...{ 6.{ I [ [ n u @ , ( 3X@ @ @ S ",
"C u.a.u.xXv.1.;   z m U 2.^.o.o.2.{ .._. X_.} p p p {  XXX X2.8XXXM p M p , u D u   b ~ B.fXB.u.C 4 ",
"5 ( 2XxXjXjXcXh.@ ; N m ..*.m { o.2.^.....W.XX8XmXmXmXaXsXsXsXsXaX+XL p } o.p L B u h.n.zX,X<X5Xb ^ ",
"b n.3XB.@ @ * * Q Z ! ~ <.3.5.-X,XpXaXpXpXpXpXpXpXlXlXaXaXlXlXMXMXlXpX5X>X1.~ P ` N n.,XdX4X4Xb.! c ",
"Z :.1.1.@ @ @ @ C c c x P ! ~ ~ >.<.8.5.>.>.{ @.[ >.#.#.7.7...5. X6.,.>.z > a 6 p.5.5.6X5X-X,Xn.~ k ",
"9 Q ~ <.@ @ @ @ ( b 1.b.,Xb.,X4XdXcXAXZXbXbXxXzXvXxXkXkXcXxXbXxXxXkXkXxX1X1.n._ v.n.5XkXdX5XkXkX4X$.",
"c Q 1.x.n.n.xXdXqXb ` _ x.L #.-X5X0XpX5X6XeXdXj.i.b.n.j.>.6.5.5.5.>.:.:.~ n.B.~ T n.n.@ @ @ @ 3X,Xi.",
"( 1.S.dXdXxXcXzXB.w Q v.n.# y g s s s g H =.g i i P.[.Q.J.U.U.U.P.I.f y L ,Xv.x.( A.@ @ @ @ @ h.<.,.",
"b Q 1.x.B.n.1XdXv.T _ 4XdXy K.J.U.|.|.R.3.i s d u d ..p y f P.{.[.P.P.y a.eXZ.v._ p.@ @ @ @ $ p.1XB.",
"Y ,.x.v.3XB.iX5X( E _ 2XzXH.%XE.G.G.I.H M d f f G.H G i | R.Y.Y.H E.| i -XdX1Xv./ i.@ @ @ zXjX1Xu.( ",
"~ v.B.n.dXzXdXfX_ C u.2XjXH.|.E.Y.E.Q.{.Y.G T...| T.}.H Q.#X@X{.R.}.OXf <XfX2X_ / p.X @ @ ,.v.n.,XN.",
"Y Q x.p.~ v.x.2XY v _ ,XdXG.E.E.Y.}.}.`.| R.Q.oX@X@XoXF T.}.Q.Y.d W.@XE.<XdX2X( e.B.@ @ @ a.p.v.Z.v.",
"w ` ` T _ v.x.v.Z 9 ( A.dXG.E.].^.`.).'._._.`.@X@X$X@X4._.^.o.&.J X.}.R.2XwXA./ _ x.@ @ @ ~ T ) u.) ",
"t.v.B.1.x.x.) a.v 5 ( <XeXH ~.tXtXyXyXyXnX$X+X9X9XnXtXnXnXnXnXtX#X`.+X`.<XB.2X/ ( A.@ @ @ fX3Xv.( ^ ",
"^ Q @ @ v.n.B.S.e.5 ) v.qXD T.:X].+X'.).=X4.4.=.-.8X>X>X8X8X9X7X+X2.-.B Z.V.N.Y t.c.@ @ @ @ @ p.f.( ",
"E T @ @ B.dXdX2Xd.w T x.2XD (./.*X;X6X&X&X-X&.^.*.9X8X*X-X6X-X*Xj.%.;.F h.d.v.Y t.c.@ @ @ @ @ p.u.^ ",
"w ^ @ @ @ @ @ @ @ 9 T c.Z.F &.-.n u u u u V &.:X+.:X/.J n j : > > %./. .g.r.e.Y q./ x.a.v.x.p.a.( Z ",
"E E x.@ @ @ @ @ @ 9 w _ C. .&X&X;X0X>X0X%.O.=.!.B =X/.-.-X0X0X7X6X0X4.!.a.e.e.C 0.( ` / / ( ) T T x ",
"Y w _ @ @ @ @ @ @ w w _ m.} &X6X;X0X=X7X%.)././.+.(.*X%.*X9X7X7X*X>X&X^.i.e./ C / / ) W ( f.a._ v 5 ",
"T _ @ @ @ @ @ @ $ 5 9 / s.F &X*X*X5X=X&XN S B ;.-.:X=XJ /.:X].].4.5X&X).k.r.Y w r.( _ d./ ( p.,.u.E ",
"q Y * $ @ @ @ @ @ - 5 / f.&.&Xj.;./.;.(.c c h S B .X=XB -.(.>X/.k.0X;X4.a.e.C w D.t.u.A.p.,.b.Z.u.u.",
"0.0.s.v.v.@ @ @ e.= - E d.&.&X-X6X/.&X/.c B ;.!.B J &.N B >X).-.$.0X7X=.g.c.Y 5 D.e.r.C.@ $ @ @ @ ^ ",
"/ W e.u.B.@ @ @ ^ 2 - t.g.J k.k.j.7X:X4.h S +.] n ~.&.l m ;X;X^.' 5X>X-.a.t.w 3 M.t.e.M.@ @ @ @ @ ^ ",
"Y / ( p._ f.N.c.t.3 2 d.w.H &Xb.O.&X&X4.6 c ;./.D 8X(.k N _.XX^.B 5X:X4.,.c.Y 0 D.t.w Q @ @ @ @ @ Q ",
"Y / Z.N.,.a.N.f.r.= 3 r.S J *X6X! ^..X!.h c J ~.+.0XXXV P .X8X'.@.6X>X*.,.M.W 0 D.W 5 9 v w 9 b v C ",
"q C @ @ $ D.N.C.0.- 5 w.S ;.4.g.N ..^.=.j S !.=.-.}.).B N X.T.] V j./.*.Q gXW 5 V.e.k @ @ @ $ $ ( ^ ",
"q E @ @ @ x.C.A.t.= q r.b &.O.i.e.i.g.$.^ O.'.;.J 0X>Xz.1.h.<.q.( z.!.O.Q gXe.5 M.e.w @ @ @ @ @ T q ",
"7 C @ @ X v.x.d.E = w e.S `.T.X.W.=.F ] F ] =.4.S /.:XT.{ W.W.[ ..2.*.V x gXr.0 r.e.5 @ @ @ @ @ e.w.",
"8 e.@ @ @ @ @ @ $ @ w e.k R.R.OXoXoXR.L.X.T.[ 3.V X.W.OXQ.Q.OXoXOXR. .z q gXd.W W t.Y Q ~ @ @ @ f.0.",
"9 ( ,.$.@ @ @ @ @ @ 5 f.6  .^.X.T.R.H F F  .N ;.B `.`.{.oXQ.Q.R.Q.Q.o.n 5 jXM.R Y e.w @ @ @ @ @ Z 7 ",
"v x x <.$ @ @ @ @ @ q Z.; X.&.j : : : ; & N k.&XO.}.T.N j j j h > j ] l > CXd.Y Y r.v @ @ @ @ @ t.9.",
"C q.4XfX@ @ @ @ @ $ x Z.; V ~.J J *X:X=Xc F ~.:X-.rX&.N %.*X-.;.M O./.O.x CXd.Y 9 0.w @ @ @ _ w ( E ",
"A @ @ @ @ @ @ $ @ @ x u.& H H N d L.L.`.h B ;.~.V 6X+.h V ~.Q.Q.D 3.;X#.l xXe.r 5 W - @ @ @ / ^ E q ",
"E @ @ @ @ @ Q x.C $ 8 q.* F V c u G F V - V -.&.N Z.%.h j X.`.Y.D %.^.V > gX( 0 0 r.w / c.e._ r.w.0 ",
"3 Z u.e.T Y T p.C % 3 Z @ u j A x A N 6 & h z.J j B c 6 x S O.S b !  ., - V./ 7 5 W - 5 v Z T T C 5 ",
"r x.e.w Q ( b Y C $ 2 C X h h B %.-.z.z.%.q.c N 5 F V S A A S u.~ ! , , - V.r.w 0 e.5 5 q Z / e.r.0.",
"w ( / ( m.T v A 9 % 3 q X * h V V l l V h S c V ; B J B % & ; & $ : ~ > * M._ Y 0 _ w Y T @ $ @ @ e ",
"q C A / / v r A = = 2 C X X h c c c h x : 8 8 &   : ~ 6 * & X @ $ : k = X r.e.W 0 W 0 Y / @ @ @ $ C ",
"R E W w.^ Y 7 q o % 1 4 + + X ; = & % $ = = o   O X o o $ = = = - = = $ o 9.t.r 4 Y - q E @ @ @ $ 0 ",
"e A C 0.E r 5 C = 1 = N.N.N.N.$ @ @ @ @ @ N.N.N.@ @ @ @ @ @ v.m.m.v.@ @ @ x.K r 4 r 5 q q $ @ @ o r ",
"y.F.BXNXm.A A r t t @ @ @ @ @ @ @ @ @ @ @ @ @ @ @ @ @ @ @ @ m.v.@ @ @ @ @ @ 0.r R Y r t.M.BXVXBXuXy.",
"O 4 R E E e 0 1 1 4 @ @ @ @ @ @ @ @ @ @ @ @ @ @ @ @ @ @ @ @ @ @ @ @ @ @ @ o 4 . o = = 4 W 0.y.y.y.K ",
"1 4 K w R r w 1 < 1 o @ @ @ @ @ @ @ @ x.@ @ @ @ o x.x.x.m.@ @ @ @ @ $ @ @ @ = O = 1 o 2 ^ W 4 t 4 1 ",
"1 1 1 t K 5 2 < O < @ @ @ @ @ @ @ @ @ X o X X X X X X . + @ @ @ @ .   o $ o = % = 7 1 4 W w . O < 1 "
};
