/* XPM */
static char *result[] = {
/* columns rows colors chars-per-pixel */
"50 50 234 2 ",
"   c #0B0C03",
".  c #060408",
"X  c #0D0C0B",
"o  c #060705",
"O  c #110E05",
"+  c #100E0D",
"@  c #1C1E03",
"#  c #13130B",
"$  c #1B1A0E",
"%  c #171507",
"&  c #0E0910",
"*  c #110F14",
"=  c #141312",
"-  c #1C1C13",
";  c #1C1D1C",
":  c #141916",
">  c #201D0D",
",  c #221E13",
"<  c #211E19",
"1  c #1B231B",
"2  c #1F230F",
"3  c #2C2B0B",
"4  c #292809",
"5  c #342C08",
"6  c #383409",
"7  c #242415",
"8  c #2D2B13",
"9  c #24231A",
"0  c #2C2C1C",
"q  c #282717",
"w  c #362D16",
"e  c #2E341C",
"r  c #333112",
"t  c #3A3612",
"y  c #3B3914",
"u  c #38371A",
"i  c #171D23",
"p  c #1D2323",
"a  c #242423",
"s  c #232A24",
"d  c #2E2D23",
"f  c #2B2B2B",
"g  c #27282B",
"h  c #293627",
"j  c #333325",
"k  c #34332C",
"l  c #3A3A28",
"z  c #2D333B",
"x  c #2A3736",
"c  c #3B3C33",
"v  c #3B3A3B",
"b  c #333737",
"n  c #292B34",
"m  c #443908",
"M  c #423A17",
"N  c #432F12",
"B  c #423E35",
"V  c #403E24",
"C  c #38432A",
"Z  c #37433A",
"A  c #4E4406",
"S  c #55480A",
"D  c #58520D",
"F  c #4B491A",
"G  c #484516",
"H  c #534B16",
"J  c #585416",
"K  c #4A511F",
"L  c #665907",
"P  c #635A18",
"I  c #755F15",
"U  c #6A620E",
"Y  c #7E7509",
"T  c #6C6418",
"R  c #766C18",
"E  c #7D7618",
"W  c #726B0D",
"Q  c #464826",
"!  c #5B5828",
"~  c #474638",
"^  c #584C36",
"/  c #57553B",
"(  c #4C5334",
")  c #655826",
"_  c #615B37",
"`  c #5F6127",
"'  c #5E6232",
"]  c #6B6529",
"[  c #766A25",
"{  c #7C7628",
"}  c #686438",
"|  c #786C34",
" . c #7A7938",
".. c #363C44",
"X. c #32374F",
"o. c #373965",
"O. c #423F42",
"+. c #354246",
"@. c #39464C",
"#. c #3C4653",
"$. c #3D4D54",
"%. c #394759",
"&. c #3E5355",
"*. c #355242",
"=. c #444344",
"-. c #4C4A4C",
";. c #484848",
":. c #534F4C",
">. c #4E534C",
",. c #565547",
"<. c #424E5B",
"1. c #454A56",
"2. c #4B5B5C",
"3. c #465558",
"4. c #535453",
"5. c #5C5B5B",
"6. c #565756",
"7. c #605E5F",
"8. c #49635B",
"9. c #6B6C4E",
"0. c #494D64",
"q. c #4C5667",
"w. c #4C5C62",
"e. c #4C596B",
"r. c #455466",
"t. c #555A66",
"y. c #575579",
"u. c #4B5471",
"i. c #605F62",
"p. c #4D6063",
"a. c #516261",
"s. c #566171",
"d. c #636263",
"f. c #6D6B6C",
"g. c #696A65",
"h. c #737171",
"j. c #7C7C7C",
"k. c #7A7876",
"l. c #70706D",
"z. c #866E0F",
"x. c #847503",
"c. c #8C7D04",
"v. c #8C7C0C",
"b. c #877808",
"n. c #927E03",
"m. c #957C0C",
"M. c #826E14",
"N. c #857A13",
"B. c #8B7D1B",
"V. c #877815",
"C. c #937F11",
"Z. c #997F10",
"A. c #857E2C",
"S. c #867A25",
"D. c #897E37",
"F. c #807F7D",
"G. c #938403",
"H. c #95830C",
"J. c #9B840C",
"K. c #9C8C0B",
"L. c #988906",
"P. c #8D831B",
"I. c #8E8216",
"U. c #948314",
"Y. c #9A8413",
"T. c #93831B",
"R. c #9C8C1D",
"E. c #998818",
"W. c #9D9217",
"Q. c #948A0C",
"!. c #A48D0D",
"~. c #A38807",
"^. c #A39204",
"/. c #A3940C",
"(. c #AA950C",
"). c #A49A0B",
"_. c #AB9C0C",
"`. c #AB9802",
"'. c #B29C08",
"]. c #A38B12",
"[. c #A68D18",
"{. c #A49213",
"}. c #AA9613",
"|. c #AA9B14",
" X c #A2911B",
".X c #A99916",
"XX c #B39D1A",
"oX c #B39C10",
"OX c #B8A508",
"+X c #AEA31D",
"@X c #B4A315",
"#X c #BAA518",
"$X c #ACA00D",
"%X c #8B852A",
"&X c #958A23",
"*X c #9D8C24",
"=X c #938C2C",
"-X c #988828",
";X c #999528",
":X c #8E8633",
">X c #8A8639",
",X c #9B8E31",
"<X c #948935",
"1X c #969435",
"2X c #A28B22",
"3X c #A89827",
"4X c #B29C2D",
"5X c #A49938",
"6X c #A38E31",
"7X c #ACA124",
"8X c #B5A523",
"9X c #B6A826",
"0X c #A9A233",
"qX c #B6A637",
"wX c #8D8B41",
"eX c #858242",
"rX c #988E44",
"tX c #979656",
"yX c #A5974D",
"uX c #83827E",
"iX c #908B64",
"pX c #B7A663",
"aX c #7F7E81",
"sX c #817F82",
"dX c #848383",
"fX c #8D8B89",
"gX c #918F8F",
"hX c #92928E",
"jX c #9A9995",
"kX c #979696",
"lX c #8E8D90",
"zX c #A3A29E",
"xX c #ADABAC",
"cX c None",
/* pixels */
"cXcXcXcXcXcXcXcXcXcXcXcXcXcXcXcXcXcXcXcXcXcXcXcXcXcXcXcXcXcXcXcXcXcXcXcXcXcXcXcXcXcXcXcXcXcXcXcXcXcX",
"cXcXcXcXcXcXcXcXcXcXcXcXcXcXcXcXcXcXcXcXcXcXcXcXcXcXcXcXcXcXcXcXcXcXcXcXcXcXcXcXcXcXcXcXcXcXcXcXcXcX",
"cXcXcXcXcXcXcXcXcXcXcXcXcXcXcXcXcXcXcXcXcXcXcXcXcXcXcXcXcXcXcXcXcXcXcXcXcXcXcXcXcXcXcXcXcXcXcXcXcXcX",
"cXcXcXcXcXcXcXcXcXcXcXcXcXcXcXcXcXcXcXcXcXcXcXcXcXcXcXcXcXcXcXcXcXcXcXcXcXcXcXcXcXcXcXcXcXcXcXcXcXcX",
"cXcXcXcXcXcXcXcXcXcXcXcXcXcXcXcXcX1XT.B.N.E W M.E Y Y Y N.I.E.3X6X4X5X=XT R ,XyXcXcXcXcXcXcXcXcXcXcX",
"cXcXcXcXcXcXcXcXcXcXcXcXcXcXcXR N.3XG.x.x.b.b.z.Y G.I.G.L.^.'.^.`.oX.XG.L D I S.pXm cXcXcXcXcXcXcXcX",
"cXcXcXcXcXcXcXcXcXcXcXcXcXcXR D Q./.K.v.z.M.S.I [ [ A.S.B.Y.^.^.oXoX3Xv.A A S A | N cXcXcXcXcXcXcXcX",
"cXcXcXcXcXcXcXcXcXcXcXcXcXcXD D 2XQ.N.M.[ ) ^ :.^ ~ l t P ,X].oXoXXX6XM.5 6 G J H t 7 cXcXcXcXcXcXcX",
"cXcXcXcXcXcXcXcXcXcXcXcXcX' 6 R 6XU.x.z.R 5 O %         5 &X}.`.OX+XW.W 8 @ 3 K H G 5 C cXcXcXcXcXcX",
"cXcXcXcXcXcXcXcXcXcXcXcXcX~ u | *XH.Y V.D   o ; : @ % & % D.|.OXOXqXS.U 1 # 1 e Q F 6 u ,.cXcXcXcXcX",
"cXcXcXcXcXcXcXcXcXcXcXcX' h G A.7XK.Z.z.T N t t w N N 6 D  X'.OXOXqX{ A 1 : p s u G M u ,.cXcXcXcXcX",
"cXcXcXcXcXcXcXcXcXcXcX' ,.f K ;X+X/.~.Z.Z.E.,X;X3X3X4X4XXX@X#X$X+X;XR 6 # : p p e 6 t 8 c cXcXcXcXcX",
"cXcXcXcXcXcXcXcXcXcXcX9.Q a eX0X;X,X=X%X>X:XA.{ S.B.S.;X5X5XyXrX5X;X .6 & i i s h 4 r $ s cXcXcXcXcX",
"cXcXcXcXcXcXcXcXcXcXcX' Q 0 tX%XT ( ~ Z C C C e h l l C M ~ :.:.` R  .K X i i p e 3 r $ Z cXcXcXcXcX",
"cXcXcXcXcXcXcXcXcXcXcX} 6 ! tX` B X.x h x h x x x ..+.+.+.@.o.X.C K  .] = : i s 0 8 8 9 cXcXcXcXcXcX",
"cXcXcXcXcXcXcXcXcXcXcX! 6 D.9.! 1.o.x x x x Z +.@.#.%.&.&.3.r.r.@.~ } | 7 1 p f 0 3 0 - cXcXcXcXcXcX",
"cXcXcXcXcXcXcXcXcXcXcX! D rX,.:.0.%.X.X.X.%.$.r.r.r.e.e.t.p.p.p.q.1._ [ u 7 1 h j 8 8 9 cXcXcXcXcXcX",
"cXcXcXcXcXcXcXcXcXcXcX! [ wX/ 6.<.*.%.*.$.&.3.2.8.8.8.y.y.s.a.p.u.0./ T Q 4 q h e r @ - cXcXcXcXcXcX",
"cXcXcXcXcXcXcXcXcXcX| T D.g.q.q.e.e.r.q.q.t.e.e.e.e.e.e.8.8.a.s.e.t./ } K 3 e k a 0 9 ; cXcXcXcXcXcX",
"cXcXcXcXcXcXcXcXcXcX[ W 1X,.2.w.p.a.a.8.a.w.a.2.w.w.w.e.r.2.w.e.y.t.6./ ! r q c =.;.f = cXcXcXcXcXcX",
"cXcXcXcXcXcXcXcXcXr  .S. .,.2.3.2.2.2.2.2.3.3.3.3.3.3.$.&.@.$.$.0.1.>.( } u l ~ g.l.x * cXcXcXcXcXcX",
"cXcXcXcXcXcXcXcXcX~ ` >X! >.<.<.$.$.<.<.<.1.1.#.@.$.#...Z Z Z +.@...Z C _ M 3 0 e e   * cXcXcXcXcXcX",
"cXcXcXcXcXcXcXcXcX9. .eX5 d ..z z b n x x z g i ; i a g g g n n z ..x j ) ) t t 3 8 % : cXcXcXcXcXcX",
"cXcXcXcXcXcXcXcXcX] wXE P ! Q F M C u r r r y G F G m r w w 3 8 w y Q ! R [ S 5 5 @     cXcXcXcXcXcX",
"cXcXcXcXcXcXcXcXcXU ;X7X0X0X1X1X<X<X>XA.A.A.A.%X-X,X,X=X-X=X-X=X&X%X=X1X%X=XJ 6 4 @   cXcXcXcXcXcXcX",
"cXcXcXcXcXcXcXcXcXU  X#X@X8X|.).W.R.&XP.T.C.Y.J.Y.].]./.|.|.}.(.(././.Q.I.,XS t 4 %   cXcXcXcXcXcXcX",
"cXcXcXcXcXcXcXcXcXI 4X@XOX#X|.^.K.].T.U.Y.Z.Z.Z.~.~.~.L.].[.].!.!.}.K.v.c.=XS 3 q cXcXcXcXcXcXcXcXcX",
"cXcXcXcXcXcXcXcXcXz.4X8X(.OXoXoXZ.V.G.x.c.c.c.H.G.n.c.n.L.!.}.[.[.[.Y.Z.T.V.A 5 7 cXcXcXcXcXcXcXcXcX",
"cXcXcXcXcXcXcXcXiX&X3X9X_._.@X.XY.C.V.V.B.&X&X*XC.Y.Y.L.^.^.(.(.(.J.n.L.&XS.A 4 cXcXcXcXcXcXcXcXcXcX",
"cXcXcXcXcXcXcXcXtXP.7X7X@X$X|.W.E.T.T.T.C.T.C.Z.m.].}.)._.).)./.K.G.c.L.B.V.L 3 cXcXcXcXcXcXcXcXcXcX",
"cXcXcXcXcXcXcX .1Xv.9X9X@X$X|.K.U.T.Y.H.v.n.n.n.n.^.`./..X{. X XH.b.C. XC.R T G cXcXcXcXcXcXcXcXcXcX",
"cXcXcXcXcXcXcX .1X).9X#X@XOX(.!.H.U.U.N.v.H.Y.J.G.!.(. X X[.2XU.z.z.*X2X*XL J G cXcXcXcXcXcXcXcXcXcX",
"cXcXcXcXcXcXcXP =X/.#X#X#X#X(.!.H.m.B.B.&XB.E.Y.[.{.].!.!.].Z.x.n.Z.Z.].-XU S 4 cXcXcXcXcXcXcXcXcXcX",
"cXcXcXcXcXcXcXP { .X9X8X#X#X!.Y.C.b.N.C.T.C.U.H.J./.^.K.~.n.b.x.Z.n.!.~.S.T H r cXcXcXcXcXcXcXcXcXcX",
"cXcXcXcXcXcXcX] %X3X9X7X4X3X XT.B.E N.P.P.T.R.*XW.{.K.T.V.W R V.B.&XR.R.D.D ! 8 cXcXcXcXcXcXcXcXcXcX",
"cXcXcXcXcXcXcX) [ P.qXqX4XqX,X=X%X%XA.%X:X<X5X,X,X*XT.A.[ R S.D.:X:X5X,XT m F % cXcXcXcXcXcXcXcXcXcX",
"cXcXcXcXcXcXcX9.d w 0 q q q q d j 9 2 7 7 7 7 $ - $ # $ d > , 7 - , , q > w l O cXcXcXcXcXcXcXcXcXcX",
"cXcXcXcXcXcXcX~ , < V q q j c Z l $ = # # O # O   O O O j d l B , q j d % r B O cXcXcXcXcXcXcXcXcXcX",
"cXcXcXcXcXcXcXl , , , - - 9 - l f # = = = + = & X X o   k 9 ; < # = , - O d j   cXcXcXcXcXcXcXcXcXcX",
"cXcXcXcXcXcXcXl B B < O # - X < - o . & . * . . . . . o < - + = # = = = k Z d X cXcXcXcXcXcXcXcXcXcX",
"cXcXcXcXcXcXcXk.fXF.dXzXfXjXdXdXj.f.5.f.-.-.B O.;.-.-.-.7.k.F.j.sXlXgXlXgXlXv . cXcXcXcXcXcXcXcXcXcX",
"cXcXcXcXcXcXcXjXjXzXgXkXdXhXlXkXxXxXzXxXjXzXjXjXfXdXdXlXsXf.t.7.d.d.l.dXkXaXk X cXcXcXcXcXcXcXcXcXcX",
"cXcXcXcXcXcXcXf.h.k.k.uXF.dXk.j.sXsXhXuXg.g.f.7.6.,.:.d.7.-.6.5.d.t.7.g.d.4.a . cXcXcXcXcXcXcXcXcXcX",
"cXcXcXcXcXcXcX>.6.:.4.4.4.5.5.t.h.h.h.h.5.:.5.4.7.7.5.-.4.=.=.v =.O...v =.v ; o cXcXcXcXcXcXcXcXcXcX",
"cXcXcXcXcXcXcXg f f s 1 d a a a O.-.-.-.-.-.-.=.-.O...f k g f f f f a k a k = cXcXcXcXcXcXcXcXcXcXcX",
"cXcXcXcXcXcXcXcXcXcXcXcXcXcXcXcXcXcXn a : = * = - ; ; < f f b f f cXcXcXcXcXcXcXcXcXcXcXcXcXcXcXcXcX",
"cXcXcXcXcXcXcXcXcXcXcXcXcXcXcXcXcXcXcXcXcXcXcXcXcXcXcXcXcXcXcXcXcXcXcXcXcXcXcXcXcXcXcXcXcXcXcXcXcXcX",
"cXcXcXcXcXcXcXcXcXcXcXcXcXcXcXcXcXcXcXcXcXcXcXcXcXcXcXcXcXcXcXcXcXcXcXcXcXcXcXcXcXcXcXcXcXcXcXcXcXcX",
"cXcXcXcXcXcXcXcXcXcXcXcXcXcXcXcXcXcXcXcXcXcXcXcXcXcXcXcXcXcXcXcXcXcXcXcXcXcXcXcXcXcXcXcXcXcXcXcXcXcX",
"cXcXcXcXcXcXcXcXcXcXcXcXcXcXcXcXcXcXcXcXcXcXcXcXcXcXcXcXcXcXcXcXcXcXcXcXcXcXcXcXcXcXcXcXcXcXcXcXcXcX"
};
