/* XPM */
static char *result[] = {
/* columns rows colors chars-per-pixel */
"50 50 239 2 ",
"   c #050505",
".  c #090B04",
"X  c #0C0D0C",
"o  c #060708",
"O  c #100D0E",
"+  c #0A170E",
"@  c #161502",
"#  c #191702",
"$  c #1D1B04",
"%  c #15140B",
"&  c #1B1B0C",
"*  c #18160C",
"=  c #0B0B10",
"-  c #130D12",
";  c #0E1114",
":  c #141514",
">  c #1B1C14",
",  c #151519",
"<  c #1C1C1C",
"1  c #151B15",
"2  c #221E03",
"3  c #291F0A",
"4  c #221F16",
"5  c #1A2213",
"6  c #18221C",
"7  c #1C220D",
"8  c #262101",
"9  c #2A2503",
"0  c #2D2902",
"q  c #25240A",
"w  c #2B240C",
"e  c #2D2A0C",
"r  c #222A0E",
"t  c #332C03",
"y  c #312D0B",
"u  c #382C0B",
"i  c #363203",
"p  c #383301",
"a  c #34330C",
"s  c #3A310E",
"d  c #2C2514",
"f  c #2D2C13",
"g  c #28271B",
"h  c #332D13",
"j  c #362B1B",
"k  c #343312",
"l  c #3C3413",
"z  c #3D3913",
"x  c #3D341B",
"c  c #39381A",
"v  c #0E1623",
"b  c #1D1C23",
"n  c #131C25",
"m  c #192425",
"M  c #1D2630",
"N  c #232424",
"B  c #2A2C2A",
"V  c #242A27",
"C  c #2A3328",
"Z  c #3B3923",
"A  c #393728",
"S  c #222B31",
"D  c #252E3B",
"F  c #2C3333",
"G  c #2B353C",
"H  c #2E393C",
"J  c #273434",
"K  c #3B3E3C",
"L  c #343A35",
"P  c #342F30",
"I  c #42390F",
"U  c #423A13",
"Y  c #433D1B",
"T  c #433B26",
"R  c #453E31",
"E  c #3C423D",
"W  c #3E4635",
"Q  c #384934",
"!  c #474408",
"~  c #544D0C",
"^  c #504905",
"/  c #5C560E",
"(  c #44431B",
")  c #4D451B",
"_  c #494615",
"`  c #534B1D",
"'  c #534A15",
"]  c #5C5515",
"[  c #5E5B15",
"{  c #5C541B",
"}  c #5C5A1B",
"|  c #535118",
" . c #4E5113",
".. c #665708",
"X. c #635B13",
"o. c #625C1A",
"O. c #625616",
"+. c #725F0A",
"@. c #67660D",
"#. c #7A6C02",
"$. c #73650B",
"%. c #776A0A",
"&. c #7D7204",
"*. c #7C720C",
"=. c #696316",
"-. c #72621B",
";. c #756D1C",
":. c #7B6E1C",
">. c #746813",
",. c #7A7416",
"<. c #4D4C2A",
"1. c #494726",
"2. c #534923",
"3. c #4E5427",
"4. c #585625",
"5. c #494837",
"6. c #544D33",
"7. c #544F3A",
"8. c #535432",
"9. c #5B5B34",
"0. c #59553A",
"q. c #635C2A",
"w. c #665E25",
"e. c #615836",
"r. c #705F30",
"t. c #5F622F",
"y. c #656223",
"u. c #6A6526",
"i. c #746C25",
"p. c #7A7226",
"a. c #64653D",
"s. c #686435",
"d. c #776C31",
"f. c #797736",
"g. c #2C3542",
"h. c #2B3744",
"j. c #323C45",
"k. c #363D4C",
"l. c #313C6B",
"z. c #364244",
"x. c #3C4343",
"c. c #3B464C",
"v. c #3E4453",
"b. c #394753",
"n. c #3D5A4A",
"m. c #33446B",
"M. c #454D41",
"N. c #494948",
"B. c #564E43",
"V. c #4A594B",
"C. c #565847",
"Z. c #424555",
"A. c #444B5B",
"S. c #484C54",
"D. c #455857",
"F. c #5D5B53",
"G. c #585956",
"H. c #514E52",
"J. c #625E4D",
"K. c #5F6050",
"L. c #686743",
"P. c #7B7D44",
"I. c #6B685B",
"U. c #7A765B",
"Y. c #555763",
"T. c #495B65",
"R. c #615F67",
"E. c #5F6263",
"W. c #787769",
"Q. c #797878",
"!. c #686860",
"~. c #826F01",
"^. c #847503",
"/. c #8C7A05",
"(. c #8D7B0B",
"). c #877608",
"_. c #937B0A",
"`. c #8C7C13",
"'. c #8C7B1C",
"]. c #847617",
"[. c #8B7C24",
"{. c #857926",
"}. c #877C31",
"|. c #877E40",
" X c #7C813C",
".X c #8D810E",
"XX c #94840A",
"oX c #9B8707",
"OX c #8A8116",
"+X c #938313",
"@X c #9C8414",
"#X c #9A8A15",
"$X c #94851A",
"%X c #978C1B",
"&X c #998A1A",
"*X c #9C931A",
"=X c #9B9517",
"-X c #9B920E",
";X c #A58C08",
":X c #AE9D04",
">X c #A4920E",
",X c #AC950E",
"<X c #A89808",
"1X c #B59C0C",
"2X c #A58E12",
"3X c #A59514",
"4X c #AA9413",
"5X c #AC9B13",
"6X c #A2941C",
"7X c #AD9C18",
"8X c #A39A18",
"9X c #B29C15",
"0X c #B39F1C",
"qX c #B6A209",
"wX c #BAA413",
"eX c #BAA21A",
"rX c #B3A417",
"tX c #ADA00E",
"yX c #878629",
"uX c #9E8D2C",
"iX c #968B26",
"pX c #9B9128",
"aX c #968B36",
"sX c #999535",
"dX c #8D8138",
"fX c #A2962C",
"gX c #A89E30",
"hX c #B0AA37",
"jX c #999152",
"kX c #A29B53",
"lX c #A9A54F",
"zX c #828470",
"xX c #7E8085",
"cX c #8A898C",
"vX c #9A958E",
"bX c #9C9796",
"nX c #A49F9D",
"mX c #ACA7AC",
"MX c None",
/* pixels */
"MXMXMXMXMXMXMXMXMXMXMXMXMXMXMXMXMXMXMXMXMXMXMXMXMXMXMXMXMXMXMXMXMXMXMXMXMXMXMXMXMXMXMXMXMXMXMXMXMXMX",
"MXMXMXMXMXMXMXMXMXMXMXMXMXMXMXMXMXMXMXMXMXMXMXMXMXMXMXMXMXMXMXMXMXMXMXMXMXMXMXMXMXMXMXMXMXMXMXMXMXMX",
"MXMXMXMXMXMXMXMXMXMXMXMXMXMXMXMXMXMXMXMXMXMXMXMXMXMXMXMXMXMXMXMXMXMXMXMXMXMXMXMXMXMXMXMXMXMXMXMXMXMX",
"MXMXMXMXMXMXMXMXMXMXMXMXMXMXMXMXMXMXMXMXMXMXMXMXMXMXMXMXMXMXMXMXMXMXMXMXMXMXMXMXMXMXMXMXMXMXMXMXMXMX",
"MXMXMXMXMXMXMXMXMXMXMXMXMXMXMXMXMXMXMXMXMXMXMXMXMXMXMXMXMXMXMXMXMXMXMXMXMXMXMXMXMXMXMXMXMXMXMXMXMXMX",
"MXMXMXMXMXMXMXMXMXMXMXMXMXMXMXMXMXMXMXMXMXMXMXMXMXMXMXMXMXMXMXMXMXMXMXMXMXMXMXMXMXMXMXMXMXMXMXMXMXMX",
"MXMXMXMXMXMXMXMXMXMXMXMXMXMXMXMXMXMXMXMXMXMXMXMXMXMXMXMXMXMXMXMXMXMXMXMXMXMXMXMXMXMXMXMXMXMXMXMXMXMX",
"MXMXMXMXMXMXMXMXMXMXMXMXMXMXMXMXMXMXMXMXMXMXMXMXU.MXMXMXMXMXMXMXMXMXMXMXMXMXMXMXMXMXMXMXMXMXMXMXMXMX",
"MXMXMXMXMXMXMXMXMXMXMXMXMXMXMXMXMXMXMXMXMXMXyXf.<.w.&.*.].[.[.{.{.aXkXMXMXMXMXMXMXMXMXMXMXMXMXMXMXMX",
"MXMXMXMXMXMXMXMXMXMXMXMXMXMXMXMXMXMXMXMXMXa.yXf.R O.&.&.#.#.#.~.&.&.p.y.MXMXMXMXMXMXMXMXMXMXMXMXMXMX",
"MXMXMXMXMXMXMXMXMXMXMXMXMXMXMXMXMXMXMXMXM.( pXp.T ,./.XX#.#.#.&.^./.>.a W MXMXMXMXMXMXMXMXMXMXMXMXMX",
"MXMXMXMXMXMXMXMXMXMXMXMXMXMXMXMXMXMXMXz.k.9.=X].I *XoXoX/.~.(.(.).^.>.y 5 5.MXMXMXMXMXMXMXMXMXMXMXMX",
"MXMXMXMXMXMXMXMXMXMXMXMXMXMXMXMXMXMXMXQ m.L.8X%X[.4X;X;X_._._.2XXX_.;.r 5 C MXMXMXMXMXMXMXMXMXMXMXMX",
"MXMXMXMXMXMXMXMXMXMXMXMXMXMXMXMXMXMX5.n.m.L.rX7XgX1X1X1X1X4X2X2X3X2Xp.5 6 6 B MXMXMXMXMXMXMXMXMXMXMX",
"MXMXMXMXMXMXMXMXMXMXMXMXMXMXMXlXMX9.n.D.b.L.<XrXeXwXwXqX1X:X1X,X5X3XdX5 m V C Z kXMXMXMXMXMXMXMXMXMX",
"MXMXMXMXMXMXMXMXMXMXMXMXsXsX*X=XsX .V.T.V. XsXuXpXuXuXfXpX8X3X6X-X3X}.5 6 J J A sX*X6XMXMXMXMXMXMXMX",
"MXMXMXMXMXMXMXMXkXaXsXpX=X%XXXXX Xk V.E.3. Xr 4 2 3 q 1.Y { w.i.OXXX:.7 V J L c i.+X-X<X=XhXMXMXMXMX",
"MXMXMXMXMXsX*X6X%X(.+X(.^.(.+X+Xu.j.V.0.f.3.m v : v + J : 1 6 f y.^.>.k 6 J J C 9.=.%..X#X6X}.MXMXMX",
"MXMXMXMXMXaX(.(.(./.&X(.).`._..Xt.D V.s.yXf m m 1 v + C 1 < 6 N _ ).>.3.g J H Q y.X...+.%._.{.MXMXMX",
"MXMXMXMXjX:.].`.`.OX@XiX@X_.;X6XL.Q 4. X3.D J S S M m J S S J h.Q  X&.-.f C H ( $X].%...>.,.` MXMXMX",
"MXMXMXMXi.'.$X#X$XoX>XoXoXoX:X0Xa.Q L.s.A k.j.g.G D M H h.h.g.b.W ,.^.%.` A G ) &X+X'.[.].].I A MXMX",
"MXMXMXMXaX6X2X<X>XtX:X:XoX4X1X0Xu.Q P.<.N.b.c.H g.G J J h.z.z.b.M.-.&.&.=.R P ] XX_.).`.].{.j j H.MX",
"MXMXMXMX$X1X:XqXqXwXwXwXwX9XwX0Xi.a.[ x.v.D.c.c.z.z.H E E c.c.A.Y.8.'.^.%.} T >.3X4X2X_.).[.I j F.MX",
"MXMXMXMX'.4X1XqXwXeXeXrXeX0XwXrX[.f.4.v.A.A.S.b.Z.b.k.j.c.b.A.A.Y.B.p.).#.>.Y ].,X9X4XoX_.[.u P L.MX",
"MXMXMX0.'.@X2X2X4X,X,X;X4X3X<X>XiX;.T A.S.S.A.Z.Z.Z.v.c.v.v.A.N.H.6.:.).#.#...uX4X9X9X2XXX'.U A !.MX",
"MXMXMXR {.4X9X,XrX9X4X2X-X#X`.(.,.>.` 9.} 8.9.8.8.0.7.8.<.<.1.( 8.q.$.$.>.^.$.$.)._.pXfXpX].( A W.MX",
"MXMXMXB.;.*X8X5X>X6X&X&X&X'.,.>.@.X.~ =.@.o.o.[ } 4.4.} [ [ [ } 4.} =.:.:.*.-.......-.=.{.=.( T W.MX",
"MXMXMXF.i.iXuXfXiXuXuXsX[.i.=.O./ ] | ] O.} / O.} ` { { [ [ / | !  .u.w.:.p.s.i.O.] ' ! ` ) T A I.MX",
"MXMXMXI.k | =.y.i.w.q.e._ I l l s s A j j Y s x x T Z x z a I z y z z x ' ` 1.' ) Y 1.x 1.Z A R I.MX",
"MXMXMXzX5.c '  .u.4.7.B.0.<.w y j d d j d g j g d f f e e f h h a k k 1.5.7.6.` ) 2.) Y 1.z Z 5.C.MX",
"MXMXMXW.6.q.u.p.dX9.4 % A 9.U 0 t t 0 t i i k a e w k e e h k k c k 5.Z * g 0.s.X.~ ~ I ! ! s 8.6.MX",
"MXMXMXQ.9.=.@.,.X.. . X . @ ( 0 t p t p p p t 0 0 0 0 0 9 0 t a e k 7 X X . * _ ] ^ ^ ~ ^ ! a e.J.MX",
"MXMXMX!.N.0.e.e.3 . b , X   & e y t t u 0 0 0 0 0 0 0 0 0 0 t t 9 f   ; , X . @ ( ) I Y z l Z K.F.MX",
"MXMXMXG.cXmXmXnX- : b N < X   B d w 3 w 3 3 0 2 9 0 0 9 0 9 0 t 9 >   < b N o . 5.vXvXnXnXbXcXQ.MXMX",
"MXMXMXMXG.M.C.F.O , N ; g , X > w 8 8 9 9 9 9 2 9 9 9 9 9 9 9 9 h o ; V > < v o F cXxXQ.R.H.H.G.MXMX",
"MXMXMXMXE.E.H.j.MX< o , X < * MXq 9 8 8 2 2 3 2 3 3 3 3 8 8 2 2 d MX= 1 . o b = j.5.x.j.H.G.G.B.MXMX",
"MXMXMXMXM.F B MXMXN X 4 , 4 o MX@ q $ 2 $ 2 2 $ 2 $ 2 $ $ 2 $ q > MXb X < < < ; MXP 5.K K R K B MXMX",
"MXMXMXMX, < O MXMX> * O < < b MX% * * * @ * # $ @ @ @ $ $ @ # & * MX: : ; , > : MX; : - O : MXMXMXMX",
"MXMXMXMXMXMXMXMXMX< : < < < : MX      MXMX    o   o X O o X X X X MX< < < < , < MX:   MXMXMXMXMXMXMX",
"MXMXMXMXMXMXMXMXMXN : N : N < MXMXMXMXMXMXMXMXMXMXMXMXMXMXMXMXMXMXMX< : N B 4 = MXMXMXMXMXMXMXMXMXMX",
"MXMXMXMXMXMXMXMXMX: < : N N MXMXMXMXMXMXMXMXMXMXMXMXMXMXMXMXMXMXMXMXX N : , V o MXMXMXMXMXMXMXMXMXMX",
"MXMXMXMXMXMXMXMXMX< N B P : MXMXMXMXMXMXMXMXMXMXMXMXMXMXMXMXMXMXMXMX4 < B N V : MXMXMXMXMXMXMXMXMXMX",
"MXMXMXMXMXMXMXMXMXMXX N : : MXMXMXMXMXMXMXMXMXMXMXMXMXMXMXMXMXMXMXMXMXO N N : MXMXMXMXMXMXMXMXMXMXMX",
"MXMXMXMXMXMXMXMXMXMXMXX < MXMXMXMXMXMXMXMXMXMXMXMXMXMXMXMXMXMXMXMXMXMXMXO . MXMXMXMXMXMXMXMXMXMXMXMX",
"MXMXMXMXMXMXMXMXMXMXMXMXMXMXMXMXMXMXMXMXMXMXMXMXMXMXMXMXMXMXMXMXMXMXMXMXMXMXMXMXMXMXMXMXMXMXMXMXMXMX",
"MXMXMXMXMXMXMXMXMXMXMXMXMXMXMXMXMXMXMXMXMXMXMXMXMXMXMXMXMXMXMXMXMXMXMXMXMXMXMXMXMXMXMXMXMXMXMXMXMXMX",
"MXMXMXMXMXMXMXMXMXMXMXMXMXMXMXMXMXMXMXMXMXMXMXMXMXMXMXMXMXMXMXMXMXMXMXMXMXMXMXMXMXMXMXMXMXMXMXMXMXMX",
"MXMXMXMXMXMXMXMXMXMXMXMXMXMXMXMXMXMXMXMXMXMXMXMXMXMXMXMXMXMXMXMXMXMXMXMXMXMXMXMXMXMXMXMXMXMXMXMXMXMX",
"MXMXMXMXMXMXMXMXMXMXMXMXMXMXMXMXMXMXMXMXMXMXMXMXMXMXMXMXMXMXMXMXMXMXMXMXMXMXMXMXMXMXMXMXMXMXMXMXMXMX",
"MXMXMXMXMXMXMXMXMXMXMXMXMXMXMXMXMXMXMXMXMXMXMXMXMXMXMXMXMXMXMXMXMXMXMXMXMXMXMXMXMXMXMXMXMXMXMXMXMXMX"
};
