/* XPM */
static char *result[] = {
/* columns rows colors chars-per-pixel */
"50 50 216 2 ",
"   c #151413",
".  c #1B1916",
"X  c #1D1C1A",
"o  c #191717",
"O  c #221F1C",
"+  c #201B17",
"@  c #3F190B",
"#  c #22211E",
"$  c #2B251F",
"%  c #39291C",
"&  c #252422",
"*  c #282724",
"=  c #2B2926",
"-  c #2D2C29",
";  c #322B25",
":  c #322E2A",
">  c #3B2E29",
",  c #3A2B24",
"<  c #33312E",
"1  c #3B322C",
"2  c #373027",
"3  c #353432",
"4  c #393532",
"5  c #3D3936",
"6  c #3E3B39",
"7  c #451B0B",
"8  c #4B1C0C",
"9  c #4D230F",
"0  c #46210D",
"q  c #4D2314",
"w  c #4F2816",
"e  c #4E2B19",
"r  c #532512",
"t  c #552A14",
"y  c #552B19",
"u  c #573017",
"i  c #5E301C",
"p  c #7D381F",
"a  c #452E29",
"s  c #492E29",
"d  c #512F28",
"f  c #44322C",
"g  c #4A322B",
"h  c #43382D",
"j  c #4A3827",
"k  c #523426",
"l  c #52342D",
"z  c #5D362A",
"x  c #553A2D",
"c  c #5C362A",
"v  c #433733",
"b  c #443B35",
"n  c #4C3B32",
"m  c #423D3B",
"M  c #4D3631",
"N  c #543A33",
"B  c #5C3E33",
"V  c #523B37",
"C  c #613626",
"Z  c #643B2A",
"A  c #7D3B23",
"S  c #763B27",
"D  c #653D31",
"F  c #54412B",
"G  c #5C442D",
"H  c #44413E",
"J  c #4D453E",
"K  c #534334",
"L  c #5A4532",
"P  c #53443A",
"I  c #5A433A",
"U  c #594A3B",
"Y  c #5D513F",
"T  c #65432E",
"R  c #6A462A",
"E  c #79452A",
"W  c #7F5C2F",
"Q  c #624231",
"!  c #654B39",
"~  c #734C32",
"^  c #774935",
"/  c #6C5439",
"(  c #785635",
")  c #464341",
"_  c #4A4643",
"`  c #4C4945",
"'  c #4E4B49",
"]  c #544D43",
"[  c #564944",
"{  c #5A544C",
"}  c #644B41",
"|  c #63594B",
" . c #685746",
".. c #625B53",
"X. c #695E52",
"o. c #796848",
"O. c #776958",
"+. c #6D644B",
"@. c #9D2F13",
"#. c #8B3C1B",
"$. c #9F3213",
"%. c #993D1A",
"&. c #A03414",
"*. c #A43C16",
"=. c #A43E1A",
"-. c #BD3615",
";. c #BE3B15",
":. c #B83C18",
">. c #8E3E24",
",. c #C03E16",
"<. c #C13F18",
"1. c #99441E",
"2. c #85421F",
"3. c #A64317",
"4. c #A5441A",
"5. c #A94419",
"6. c #AA4B1B",
"7. c #A6481A",
"8. c #BE4219",
"9. c #B24B1D",
"0. c #BA4C1E",
"q. c #B2451D",
"w. c #AC521D",
"e. c #B0541E",
"r. c #BE511D",
"t. c #8D4B2C",
"y. c #8A4726",
"u. c #964927",
"i. c #81532C",
"p. c #89522D",
"a. c #99582B",
"s. c #96542B",
"d. c #834533",
"f. c #8A5733",
"g. c #865D38",
"h. c #955A34",
"j. c #984D32",
"k. c #A54924",
"l. c #B34F21",
"z. c #BD4E20",
"x. c #AC5525",
"c. c #A85728",
"v. c #B35323",
"b. c #B25D22",
"n. c #B25B29",
"m. c #BA5825",
"M. c #A25230",
"N. c #98632D",
"B. c #8D603B",
"V. c #956B3D",
"C. c #966738",
"Z. c #A7662B",
"A. c #B46323",
"S. c #B76E29",
"D. c #B96627",
"F. c #BA782E",
"G. c #AB6B35",
"H. c #A87839",
"J. c #B67833",
"K. c #C24117",
"L. c #C44419",
"P. c #C64A1A",
"I. c #C94D1B",
"U. c #C5521D",
"Y. c #CA541C",
"T. c #CD5B1F",
"R. c #CF621F",
"E. c #C25B23",
"W. c #CE5E20",
"Q. c #D05F20",
"!. c #CF6221",
"~. c #C56626",
"^. c #D16322",
"/. c #D36B25",
"(. c #D46F28",
"). c #D57327",
"_. c #D67429",
"`. c #D67A2B",
"'. c #D97C2B",
"]. c #D87729",
"[. c #C77932",
"{. c #CF7B2C",
"}. c #845B40",
"|. c #956E42",
" X c #8A7140",
".X c #A67743",
"XX c #847969",
"oX c #CE802F",
"OX c #DA832E",
"+X c #DC882F",
"@X c #CA8937",
"#X c #DB8630",
"$X c #DC8C33",
"%X c #D58433",
"&X c #DE9335",
"*X c #DA973A",
"=X c #E09B39",
"-X c #E09836",
";X c #E2A33D",
":X c #AD8747",
">X c #B48140",
",X c #AD8D52",
"<X c #E2A542",
"1X c #E4AB43",
"2X c #E6B246",
"3X c #E5B64A",
"4X c #E8BD4D",
"5X c #E7BA4D",
"6X c #DEC256",
"7X c #E9C04E",
"8X c #EAC453",
"9X c #ECCD59",
"0X c #EAC857",
"qX c #ECD05B",
"wX c #EEDA61",
"eX c #F3F173",
/* pixels */
"C y e e q w q q 9 q 0 q q q q q w q w w w w w w w 9 w w w w q q q q q q q q q q q q q q q w w w e w ",
"t y.7.7.3.3.*.$.$.$.$.@.$.$.&.=.6.6.x.b.A.A.A.A.A.w.7.7.7.7.5.*.@.@.@.&.@.@.@.@.@.@.&.=.A.A.Z.Z.L 0 ",
"r u.E w.U.Y.K.;.-.-.-.-.-.<.<.L.T.Q.^.).].`.].].).!.T.T.Y.Y.Y.L.-.,.,.,.<.<.-.,.;.-.<.P.`.S.N.K N.0 ",
"t w.E e 1.r.8.;.;.-.-.-.;.L.L.I.^.^.).'.+X+X+XOX'./.T.T.W.E.Y.P.<.<.,.<.<.-.-.-.<.<.<.k.Z.j < T A.0 ",
"t b.Z.2 1 Z A ;.:.;.-.-.L.I.Y.T.].].OX+X-X-X&X&X#X_.W.W.Y.Y.Y.I.L.L.L.<.,.,.,.,.<.;.%.N 4 < 1 t.3.0 ",
"t b./.Q : < < z ;.;.;.;.L.Y.T.T.).].OX$X-X-X&X&X#X).W.W.Y.Y.I.I.L.L.L.<.,.,.,.,.;.S 3 < 4 > ~ m.3.0 ",
"r e.!.s.1 : < < c 8.K.K.I.T.Q.^.'.].OX+X+X+XOX+X'._./././././._.`.{.(.^.Q.Y.<.<.C 3 3 5 - f j.m.7.7 ",
"t 6.T.v.c - - : : c L.L.Y.^.^./.'.'.'.OXOXOX`.`.`._.).).`.`.#X&X<X<X$X'.].^.P.E 6 6 5 - - B k.T.7.7 ",
"r 9.T.I.>.1 - * = < C z.T.^./.(.'.OXOX'.'.'.`._._._.).].OXOX&X;X3X3X-X$X'.(.u.m m 6 - < g ^ z.Y.3.7 ",
"r 6.Y.U.y.C 1 : - - < S !./.)._.+X+XOXOXOXOX).).).).).).OXOX&X1X0X0X1X;X=X[._ 6 6 3 4 f s S z.I.3.7 ",
"r 5.U.Y.v.~ s 1 3 - * 4 Z.'.'.OX=X-X-X=X=X&X).(.(.^.R.^.OX#X*X0XeXeXwX0X4Xo.6 H 3 6 M s D k.<.<.$.7 ",
"r 5.Y.I.6.S N f > : - - h S.'.OX=X=X=X=X-X&X).(./.^.R.^.#X#X=X0XeXeXwX6XO.6 6 4 4 f s s z %.<.,.$.7 ",
"r 5.I.Y.Y.u.l f 1 4 : = - G {.$X=X=X=X=X=X&X_.(./././.Q.).'.#X<X0X0X3X Xm 6 6 4 v v f d c k.<.<.&.7 ",
"r 3.I.Y.U.l.x a > > > ; = : W &X-X=X-X=X&X&X).(././././.(.(.`.$X;X=XH.m H H 6 v m a s s >.L.L.<.&.7 ",
"r 5.I.I.U.U.p.B g : : : ; : 4 H.=X=X=X=X*X&X_.(././././././.(.`.#X[.V 6 6 6 v 6 v s l S k.z.P.<.$.7 ",
"r 5.Y.Y.T.x.T g g > : ; = = : 1 H.;X@XH.C.B.^ i.j.n.~./.^.^./._.{.B 6 6 m H H m M l l V A I.L.<.$.7 ",
"r e.^.(.'.'.f.G M a ; ; ; = : 6 | o.| / ( a.c.x.x.x.n.m.W.T.T.Q.u.< 6 m 5 b m m M N D S l.Y.P.<.$.7 ",
"r v./.).OXOXf.N g > , ; 2 H ] ..{ U H.@X)./.W.W.T.W.Y.W.E.Y.T.u.1 4 5 5 6 H m v M V V ^ z.Y.P.<.$.7 ",
"t b.].#X&X&XJ.G l f , _ X.| ] ] H 3 ( OX/./.T.T.T.W.E.W.T.T.s.; : 4 4 5 H ` ) V [ D D d.I.I.P.<.$.7 ",
"u S.$X*X1X1X@X~ x s f f P U 1 : < - : a.R.R.Y.U.4.6.I.I.R.~.> $ * 4 4 4 m m V [ I } ^ k.<.L.L.<.$.7 ",
"u F.=X1X4X7Xi.T ~ N a > 1 P : = < = G !.Y.Y.Y.2.F x y.I.^./.s.- O : 4 5 m ) _ [ } d.S >.q.<.<.<.&.7 ",
"u F.=X1X4X4X*XC.~ C.U < : K b : - * i.R.Y.T.5.% / x % 4.Z.[.F.= & ; 6 m ) ) _ ^ }.>.k.<.<.:.<.<.&.7 ",
"t S.$X&X;X=XOX).(.D.E ~ T b P : * * R Y.Y.I.i + / F + k :X:X:X< & * 3 m ` |.t.t.L.<.<.<.<.<.<.P.*.7 ",
"u S.+X$X=X&X'.)././.R.E.T 5 P m 3 # 1 1.6.4.% . F j . L .X,X+.- & < 5 m ) |.I.I.L.<.<.<.<.-.<.P.3.@ ",
"t S.OX$X-X-X].)./.^.T.c.v 5 b ! < - # & 2 = $ & % $ X  .K X...# - 3 4 H _ | z.I.K.,.;.,.,.K.L.P.*.7 ",
"t A.'.+X-X&X].)./.^.T.9.x 5 6 U H - $ X * = * = = = & $ { X.= $ - 3 6 ) ' ( I.I.K.,.;.,.,.K.K.P.*.7 ",
"t A.).'.$X&X'.).(.R.Y.0.N 5 6 b K 2 < $ # # & = = * $ - { O.b < 3 6 H ) ` g.P.I.K.;.-.,.,.,.K.P.*.7 ",
"t e.].'.$X&X].)./.^.I.r.T m 5 1 K 2 - * # . X * = * X # ..X.5 3 3 6 ) ` { h.I.I.K.K.-.,.,.,.K.P.3.@ ",
"t A.].'.+XOX]././.^.Y.z.Q 4 5 4 P F = = #   o * - = & : O.XXb < 4 6 H ' ] f.Y.T.Y.Y.Y.Y.P.P.P.Y.3.7 ",
"t A.].'.'.'././.^.^.W.T.x.~ B Q ! L %   o     = - * * ; o.O.H 3 J { ( / a.U.R.T.R.Y.R.Y.I.P.I.Y.3.7 ",
"t A.].].'.'././.^.Q.T.T.T.E.W.E.h.K #   o   X * * - - & - 5 6 5 ] @X/.!.T.T.T.T.T.R.R.Y.I.I.Y.Y.3.0 ",
"t D.].].)./.^.Q.Q.Q.Y.Y.T.Q.W.W.~ Y O   & # # & * & = * - - 4 U / G.!.U.Y.Y.T.Y.R.R.R.R.Y.I.Y.T.6.7 ",
"t A.].).^.R.Q.Y.Y.Y.Y.Y.T.R.R.^.n.g.T : - - & & = * * = : : v n.E.E.Y.L.P.I.E.T.^.^./.Q.W.W.W.W.6.0 ",
"t D.].).R.R.Q.Y.Y.Y.Y.Y.T.R.^.Q.!.f.Z.~ : 3 * & & & * - < k t.T.R.Q.I.P.L.I.Y.Y.Q./.^.^.I.I.I.W.6.7 ",
"9 r.R.R.Q.T.Q.T.T.Q.R.R._.$X-X+X+XJ.F.@XF F = & # # = - j %.P.P.P.I.L.L.L.P.P.I.I.Y.Y.Y.I.I.W.W.6.0 ",
"r 6.T.R.Q.T.Q.Q.R.R././.#X-X;X;X&X$XV.*XJ.W < & X # * - p 8.,.K.K.K.K.K.K.L.L.P.I.I.I.I.I.I.W.I.7.7 ",
"r 6.Y.T.R.R.Q.Q.^./.).).$X;X2X;X*X=XH.@X*XJ.2 & X # & - u.;.,.,.<.,.,.,.K.K.L.L.L.P.P.P.Y.Y.Y.T.6.0 ",
"r 6.Y.T.T.R.Q.Q.^._.$X&X<X3X7X4X1X1X*XH.&XJ.- * # # & - 4.8.K.K.K.K.,.,.,.K.L.L.I.L.I.I.Y.Y.T.Q.6.@ ",
"r 3.Y.T.Q.R.R.R.^.#X8X7XqXwXwXwX8X8X2XV.&XZ.* & X X & - %.L.P.P.L.P.,.;.;.,.K.K.L.I.I.Y.^.R.^.^.w.0 ",
"r 3.Y.Y.R.R.R.R./.$X8X8XqXwXwXwX0X0X2X>X@XN.= & X X & - >.P.P.P.I.L.K.,.;.K.K.L.L.I.I.Y.R.^.^.^.6.0 ",
"r 5.P.W.Q.^.^.Q./.%X4X8XqXwXwXqX1X1X*X%XV.i.= & o o & - >.L.L.P.L.<.,.-.,.,.,.,.K.P.I.I.^.^.^.!.w.0 ",
"r =.I.W.^.^.^.^./.#X8X8XqXwXwX9X&X&X$X+XC.~ * * O o & - Z L.P.P.L.<.,.,.-.-.,.,.<.K.K.I.Q.Q.R.^.6.7 ",
"r =.I.W.^.Q.Q.Q./.#X8X8X9XwXwX0X+XOXOXOXV.b * # X o & = C P.L.L.L.L.,.,.-.,.,.-.<.K.K.I.R.^.^.T.6.0 ",
"r q.I.W.Q.^.Q.Q.^.%X4X4X8X9X9X4X'.'.).).G.1 * # O X * = k I.P.P.L.L.,.,.-.-.-.-.<.<.K.I.T.T.T.T.6.0 ",
"r q.T.T.Q.Q.Y.Y.W.`.2X2X1X;X=X-XT.T.U.I.M.b * # X o - & f W.Y.I.<.<.,.,.,.,.-.,.<.K.K.L.I.L.I.Y.3.7 ",
"r 5.Y.T.Q.Q.W.I.W.`.2X3X1X;X=X$XT.T.Y.Y.M.n * O & o - & : W.Y.I.<.<.-.,.-.,.-.-.<.K.K.L.L.I.I.Y.3.7 ",
"r 6.T.Y.W.I.I.I.P.W.'.'.{.`.`./.I.I.U.P.k.K * O & X - X - D.!.U.L.K.,.-.-.-.-.,.,.<.<.K.P.L.I.I.3.7 ",
"r 5.Y.Y.I.I.L.L.L.L.E.Y.E.I.0.P.K.K.L.P.d.h * - H - - X = A.(.T.I.P.,.-.-.-.,.,.,.,.<.K.K.L.L.I.3.7 ",
"r #.5.3.*.*.*.&.&.&.&.&.$.$.@.@.@.@.&.*.^ E h.B.( .XV.R B.N.A.w.3.3.&.$.$.@.$.$.$.$.$.&.&.*.*.3.@.7 ",
"9 9 8 8 8 8 8 8 8 8 8 8 8 8 8 8 8 8 8 8 9 9 9 9 9 9 9 w 9 9 9 9 8 9 8 8 8 8 8 8 8 8 8 8 8 8 8 8 7 @ "
};
