/* XPM */
static char *result[] = {
/* columns rows colors chars-per-pixel */
"50 50 239 2 ",
"   c #060605",
".  c #070903",
"X  c #0C0B04",
"o  c #07090A",
"O  c #0C0D0B",
"+  c #050608",
"@  c #100F03",
"#  c #0E130E",
"$  c #131207",
"%  c #1C1A05",
"&  c #12130C",
"*  c #1B1C09",
"=  c #17180B",
"-  c #0D0E11",
";  c #0D1412",
":  c #0F1818",
">  c #141414",
",  c #141A16",
"<  c #1C1D1C",
"1  c #191A18",
"2  c #211E02",
"3  c #1C241D",
"4  c #1E200C",
"5  c #252202",
"6  c #2A2501",
"7  c #2D2A02",
"8  c #2B260A",
"9  c #2E2B0B",
"0  c #25280B",
"q  c #322D04",
"w  c #322D0D",
"e  c #34320C",
"r  c #3B340C",
"t  c #393506",
"y  c #2D2C15",
"u  c #22221C",
"i  c #262816",
"p  c #322E13",
"a  c #322C1C",
"s  c #353214",
"d  c #3B3511",
"f  c #33321A",
"g  c #3A3819",
"h  c #2D351A",
"j  c #181E25",
"k  c #071822",
"l  c #231F24",
"z  c #1D2423",
"x  c #1C2628",
"c  c #0F2025",
"v  c #242423",
"b  c #292A25",
"n  c #29292A",
"m  c #262827",
"M  c #2B342A",
"N  c #30322D",
"B  c #393928",
"V  c #232A34",
"C  c #282B35",
"Z  c #2A3434",
"A  c #293639",
"S  c #333A34",
"D  c #3B3B3B",
"F  c #353A39",
"G  c #32282C",
"H  c #463B06",
"J  c #433B1D",
"K  c #463B13",
"L  c #523F06",
"P  c #443B26",
"I  c #473A36",
"U  c #3B4217",
"Y  c #37402D",
"T  c #38473B",
"R  c #355337",
"E  c #48450A",
"W  c #55490A",
"Q  c #5B560B",
"!  c #4A4413",
"~  c #4E4A1E",
"^  c #49451B",
"/  c #554B14",
"(  c #5C5513",
")  c #5B531C",
"_  c #585517",
"`  c #4C5111",
"'  c #685B08",
"]  c #6C5F13",
"[  c #625816",
"{  c #69541A",
"}  c #696408",
"|  c #7C6C04",
" . c #75640C",
".. c #7A6A0B",
"X. c #756708",
"o. c #7C720B",
"O. c #7D7603",
"+. c #6C651B",
"@. c #686418",
"#. c #7A6D13",
"$. c #776918",
"%. c #7C7314",
"&. c #7D721C",
"*. c #7C781D",
"=. c #4B4323",
"-. c #4B452C",
";. c #494B2D",
":. c #464626",
">. c #554B28",
",. c #5C5622",
"<. c #595726",
"1. c #444433",
"2. c #474939",
"3. c #554D37",
"4. c #555233",
"5. c #56513C",
"6. c #5C5637",
"7. c #4F542A",
"8. c #635B23",
"9. c #655A29",
"0. c #635B37",
"q. c #596235",
"w. c #696626",
"e. c #766B26",
"r. c #797326",
"t. c #6B6334",
"y. c #6F6A30",
"u. c #716A33",
"i. c #77693A",
"p. c #7A7637",
"a. c #6D743D",
"s. c #2A3644",
"d. c #373D46",
"f. c #343957",
"g. c #403F44",
"h. c #3C4243",
"j. c #384649",
"k. c #3A4858",
"l. c #374D4E",
"z. c #434444",
"x. c #43454B",
"c. c #4C4B4B",
"v. c #494B47",
"b. c #4C524C",
"n. c #595545",
"m. c #454B54",
"M. c #46555B",
"N. c #5D5E5C",
"B. c #565554",
"V. c #574A49",
"C. c #65594C",
"Z. c #655C53",
"A. c #5C6B5B",
"S. c #65624B",
"D. c #776E46",
"F. c #6B6959",
"G. c #776E5A",
"H. c #4B5862",
"J. c #5C5960",
"K. c #596169",
"L. c #686865",
"P. c #716C67",
"I. c #747268",
"U. c #7B7B79",
"Y. c #836E06",
"T. c #847503",
"R. c #8C7B03",
"E. c #83740A",
"W. c #8A760D",
"Q. c #857A0A",
"!. c #8C7C0C",
"~. c #867704",
"^. c #927D02",
"/. c #957C0D",
"(. c #937605",
"). c #837515",
"_. c #8C7D13",
"`. c #8C7E19",
"'. c #84771A",
"]. c #937D17",
"[. c #8B7E25",
"{. c #857A27",
"}. c #897A34",
"|. c #87794F",
" X c #867F69",
".X c #7F8019",
"XX c #7B812C",
"oX c #7F807D",
"OX c #8D830A",
"+X c #9B8504",
"@X c #9C8903",
"#X c #93830B",
"$X c #9C8B0C",
"%X c #958508",
"&X c #8D8318",
"*X c #948314",
"=X c #9A8B14",
"-X c #968418",
";X c #9F9418",
":X c #9E9609",
">X c #A58C09",
",X c #A4930C",
"<X c #AB960D",
"1X c #A79507",
"2X c #B29B06",
"3X c #A08D14",
"4X c #A3891B",
"5X c #A39313",
"6X c #AB9A13",
"7X c #A69719",
"8X c #B29812",
"9X c #ADA113",
"0X c #B6A51B",
"qX c #BAA30B",
"wX c #8C8224",
"eX c #8A8627",
"rX c #998928",
"tX c #8C8637",
"yX c #9B8D31",
"uX c #9C953C",
"iX c #9C9227",
"pX c #A99927",
"aX c #AA9A38",
"sX c #AE982A",
"dX c #B5A827",
"fX c #ACA33E",
"gX c #ADA021",
"hX c #968B43",
"jX c #969458",
"kX c #A49A49",
"lX c #B8AC4E",
"zX c #B3AD50",
"xX c #8B8876",
"cX c #B6AF74",
"vX c #C0B75F",
"bX c #8A8A88",
"nX c #AAA38F",
"mX c #CCCBCC",
"MX c None",
/* pixels */
"MXMXMXMXMXMXMXMXMXMXMXMXMXMXMXMXMXMXMXMXMXMXMXMXMXMXMXMXMXMXMXMXMXMXMXMXMXMXMXMXMXMXMXMXMXMXMXMXMXMX",
"MXMXMXMXMXMXMXMXMXMXMXMXMXMXMXMXMXMXMXMXMXMXMXMXMXMXMXMXMXMXMXMXMXMXMXMXMXMXMXMXMXMXMXMXMXMXMXMXMXMX",
"MXMXMXMXMXMXMXMXMXMXMXMXMXMXMXMXMXMXMXMXMXMXMXMXMXMXMXMXMXMXMXMXmXMXMXMXMXMXMXMXMXMXMXMXMXMXMXMXMXMX",
"MXMXMXMXMXMXMXMXMXMXMXMXMXMXMXMXMXMXMXMXMXMXMXMXMXMXMXMXMXMXMXMXmXMXMXMXMXMXMXMXMXMXMXMXMXMXMXMXMXMX",
"MXMXMXMXMXMXMXMXMXMXMXMXMXMXMXMXMXMXMXMXMXMXMXvXlXzXjXZ.cXcXMXMXmXMXMXMXMXMXMXMXMXMXMXMXMXMXMXMXMXMX",
"MXMXMXMXMXMXMXMXMXMXMXMXMXMXMXMXMXzXkXfXfXfXsX8X6XpXtXC.aXp.MXMXMXMXMXMXMXMXMXMXMXMXMXMXMXMXMXMXMXMX",
"MXMXMXMXMXMXMXMXMXMXMXMXMXMXMXMXp.dXdX0X8X8X2X2X1X<XhXV.pXeXv.MXMXMXMXMXMXMXMXMXMXMXMXMXMXMXMXMXMXMX",
"MXMXMXMXMXMXMXMXMXMXMXMXMXMXMXY ` 9XqX2X2X^.(./.>X<X}.n.pXrXB K.MXMXMXMXMXMXMXMXMXMXMXMXMXMXMXMXMXMX",
"MXMXMXMXMXMXMXMXMXMXMXMXMXMXMX4 8.@X+X+X@XR.T.!.+X(.e.D.7X[.S d.A.S MXMXMXMXMXMXMXMXMXMXMXMXMXMXMXMX",
"MXMXMXMXMXMXMXMXMXMXMXMXMXMXB 4 9./.@XOXT.| | Q.W.| ( / =Xi.Z j.Y 2.MXMXMXMXMXMXMXMXMXMXMXMXMXMXMXMX",
"MXMXMXMXMXMXMXMXMXMXMXMXMX2.M 3 ,./.%XOX!.o.o.E.)...#.'.^.D.C A R D MXMXMXMXMXMXMXMXMXMXMXMXMXMXMXMX",
"MXMXMXMXMXMXMXMXMXMXMXMXMXh S c @.^.^.R.^.OXR.(.(.(./.].3X0.V A 2.d.C MXMXMXMXMXMXMXMXMXMXMXMXMXMXMX",
"MXMXMXMXMXMXMXMXMXMXaXkX<.Y A 3 %.<X<X2X8X8X6X:X:X9X9X9XaX7.m A 2.j.z D.|.MXMXMXMXMXMXMXMXMXMXMXMXMX",
"MXMXMXMXMXMXMXuXaXgX0XpX` Y A i iX<X5X7XpXpXsXeXXX.XXX.XtX8.h A j.F 3 p.iXyX&X[.{.MXMXMXMXMXMXMXMXMX",
"MXMXMXMXMXMXtXpXdXqX2X&X~ j.V :._.~.r.8._ ^ E Y h h i 0 h XXU A j.T z r.6X<X$X;XiXeX*.hXMXMXMXMXMXMX",
"MXMXMXMXMXkXiX6X0X2X2X`.Y j.3 y.| `._ y = ; ; z : ; : # # @.w.s.j.R V e.1X1X>X$X,X7X=X&X`.wX}.MXMXMX",
"MXMXMXMXMX{.*X+X@X+X$Xp.T A g $.T.{.h z c c k x : j j j x P p.;.h.j.s.u.5X@X+XR.%X>X6X3X%XR._.}.MXMX",
"MXMXMXMXMXwX=X(./.*XpXa.T Y <.#.(.t.B M n x x V j x V V C G t.<.B j.s.u.=X%X#XW.OX>X3X>X>X+XT.[.MXMX",
"MXMXMXMXMXwX/.rXrX`.&Xq.R _ r.| _.6.D h.d.F C V C V Z A S f.B r.:.T V u.].!._._.].].(./.=X$X5X..MXMX",
"MXMXMXMXB eX].[.'. .} 4.B @. .~.].;.m.x.d.d.C M Z V Z F j.k.D w.y.S x r.!.!._.Y.W.].W._.*X-X4X[.t.MX",
"MXMXMX3.p {.`.{ { ] ] 2.2.#. .~.`.;.M.l.l.R A Z A A j.j.j.R m.7.r.2.i eX!.!.W.Y.Y.Q.Q.o.&X`.].[.p.MX",
"MXMXMXn.K [.Q.....o.).9.9.#.Y.(.r.v.H.k.l.j.j.s.j.f.k.k.k.l.M.z.4.<.e yX%X/.R.R.Q.~.O.O.o.*.).e.0.MX",
"MXMXMX6.H #X%X%X=X:X7X).).| Y.!.+.N.H.H.M.k.k.j.k.k.k.k.M.M.M.m.5.p.( yX;XiXiXiXiXOXOXOXo.#...e.P MX",
"MXMXMX5.E 9X9X0X0X0XdX`.| T.Y.Y.} 2.v.x.g.d.g.D h.d.z.x.m.b.v.B.=.&.wX-X+X*X=X#X*X-X-X*X_.Q.`.p.f MX",
"MXMXMX3./ dXdX8X>X'. .' ). .X.X.[ :.;.-.-.;.-.3.5.3.3.4.5.4.6.>.H X.Q.!.$X5X7X5X6XsXsX4X4X#X| ! u MX",
"MXMXMX3.K [.#.' ' ]  .).$.$...] [ 7.~ ,.8.,.8.w.t.t.w.w.w.w.w.{ W X.} | ~._._.].-X5XsXsX8X5X`.w u P.",
"MXMXMX6.J ! ) ) 9.$.'.%.'.+.+.9.8.e E ( Q Q Q ) / _ @.+.@.@.@.' 8.@.+.+.&.'.eXrXrX~.=X/.=XpXkX8 b F.",
"MXMXMX5.P P ^ =.^ ) / [ ) / K K J e r E t E E ~ ^ ~ ~ _ Q @.( _ 6.,.) ,.[ $.r.[.wXeXwX[.yX{.e.= B G.",
"MXMXG.P J ~ ~ J ~ 9.! >.-.5.:.a w w 8 8 8 9 w a a a f e w e 7 g s e d s J H P <.9.,.) [ [ K H b S.MX",
"MXMXP.B =.! ! ) ) ( 9.D.S.B 1.2.p d s a h y y a a a a f p 9 g g d g g ^ p 0.C.2.6.-.<.! K e 8 I  XMX",
"MXMXF.P J W W ( Q } e.^ % # # 4 g e e 9 w 9 9 e p p q e d d d s d d t q ^ 6.f # * 1.t.+.( ^ K g.G.MX",
"MXMXP.P K H L L W Q _ X > o O . 0 0 q 7 7 7 7 q 7 q q t t H t d t t q q :.$ o o O * ! Q ' / J C. XMX",
"MXMXL.L.L.z.c.b.D v & X 1 < # +   a 7 q 6 7 6 6 q w 8 w q 7 q q q q t p u o , , # . $ C.6.=.g F.n.MX",
"MXMXb.oXbXbXbXU.L.v.. 1 3 b 1 + O a 7 q q q q 6 6 7 6 2 6 5 6 7 2 q 8 8 @ & 3 m > .   MXnXxXxXxXP MX",
"MXMXB.L.N.B.B.N.c.D @ > b > z -   4 8 8 2 6 6 6 6 6 2 6 6 6 6 7 2 6 8 i X < m < u O O B. XP.I.G.v.MX",
"MXMXB.L.N.c.c.z.I 3 + < O . . j   B 8 2 2 6 6 6 7 6 6 2 5 5 5 6 6 6 2 4 v 3 1 . # ; - b.B.c.T B.MXMX",
"MXMXMXg.x.c.D D D 1 > v O u > z   MX0 2 2 2 2 5 2 2 2 2 2 5 2 2 2 8 2 l n v + < O m o MXd.J.K.c.MXMX",
"MXMXMXMXMX- > < < N < b   > < v O MX= 2 % * % % 2 2 % % % % % % 2 2 2 > < v O > < j O MXl G d.G MXMX",
"MXMXMXMXMXMXMX- > MX1 < > - < u O MXX X X @ X $ X @ X @ X @ @ @ $ = @ MX1 1 > O j b O MXO 1 - MXMXMX",
"MXMXMXMXMXMXMXMXMXMXMXb > v < l O MXMXMXMXMXMXMXMXMXMXMXMXMXMXMXMXMXMXMXv n - j v < . MXMXMXMXMXMXMX",
"MXMXMXMXMXMXMXMXMXMXMXv > v > v + MXMXMXMXMXMXMXMXMXMXMXMXMXMXMXMXMXMXMXMXn - n 1 v 1 MXMXMXMXMXMXMX",
"MXMXMXMXMXMXMXMXMXMXMX1 < > u v & MXMXMXMXMXMXMXMXMXMXMXMXMXMXMXMXMXMXMXMXj 1 > < l 1 MXMXMXMXMXMXMX",
"MXMXMXMXMXMXMXMXMXMXMX1 l N N 1 MXMXMXMXMXMXMXMXMXMXMXMXMXMXMXMXMXMXMXMXMX1 v n N 1 MXMXMXMXMXMXMXMX",
"MXMXMXMXMXMXMXMXMXMXMXMX> b l O MXMXMXMXMXMXMXMXMXMXMXMXMXMXMXMXMXMXMXMXMX< < n n > MXMXMXMXMXMXMXMX",
"MXMXMXMXMXMXMXMXMXMXMXMXMX+ O MXMXMXMXMXMXMXMXMXMXMXMXMXMXMXMXMXMXMXMXMXMXMX- > O MXMXMXMXMXMXMXMXMX",
"MXMXMXMXMXMXMXMXMXMXMXMXMXMXMXMXMXMXMXMXMXMXMXMXMXMXMXMXMXMXMXMXMXMXMXMXMXMXMXMXMXMXMXMXMXMXMXMXMXMX",
"MXMXMXMXMXMXMXMXMXMXMXMXMXMXMXMXMXMXMXMXMXMXMXMXMXMXMXMXMXMXMXMXMXMXMXMXMXMXMXMXMXMXMXMXMXMXMXMXMXMX",
"MXMXMXMXMXMXMXMXMXMXMXMXMXMXMXMXMXMXMXMXMXMXMXMXMXMXMXMXMXMXMXMXMXMXMXMXMXMXMXMXMXMXMXMXMXMXMXMXMXMX",
"MXMXMXMXMXMXMXMXMXMXMXMXMXMXMXMXMXMXMXMXMXMXMXMXMXMXMXMXMXMXMXMXMXMXMXMXMXMXMXMXMXMXMXMXMXMXMXMXMXMX",
"MXMXMXMXMXMXMXMXMXMXMXMXMXMXMXMXMXMXMXMXMXMXMXMXMXMXMXMXMXMXMXMXMXMXMXMXMXMXMXMXMXMXMXMXMXMXMXMXMXMX"
};
