/* XPM */
static char *result[] = {
/* columns rows colors chars-per-pixel */
"50 50 221 2 ",
"   c #080804",
".  c #150B09",
"X  c #14140B",
"o  c #1C1C0B",
"O  c #1D1905",
"+  c #151717",
"@  c #0F0A14",
"#  c #231E0B",
"$  c #2C1A0C",
"%  c #25180A",
"&  c #2B1D12",
"*  c #271E16",
"=  c #301E0E",
"-  c #1A2107",
";  c #18251C",
":  c #24220C",
">  c #29250B",
",  c #2B2B0D",
"<  c #292708",
"1  c #342C06",
"2  c #2C310F",
"3  c #3A3608",
"4  c #232311",
"5  c #2D2011",
"6  c #2B2B13",
"7  c #252819",
"8  c #312212",
"9  c #342D13",
"0  c #2E301A",
"q  c #2B3213",
"w  c #3A3313",
"e  c #33341B",
"r  c #383717",
"t  c #141D23",
"y  c #1B1524",
"u  c #251F29",
"i  c #152322",
"p  c #1B2727",
"a  c #1E2B31",
"s  c #1E3024",
"d  c #2C2C2B",
"f  c #262B28",
"g  c #25312C",
"h  c #2C3223",
"j  c #393724",
"k  c #383726",
"l  c #242F32",
"z  c #242A3C",
"x  c #2E3A35",
"c  c #2E3C3C",
"v  c #273136",
"b  c #353534",
"n  c #3C3C32",
"m  c #3A3B3A",
"M  c #323D3E",
"N  c #423B0A",
"B  c #483701",
"V  c #423D18",
"C  c #413C24",
"Z  c #4B3B35",
"A  c #493E3A",
"S  c #3B411C",
"D  c #35423E",
"F  c #3E4030",
"G  c #4C470A",
"H  c #554C09",
"J  c #5A5308",
"K  c #494519",
"L  c #544C12",
"P  c #544A19",
"I  c #595419",
"U  c #655C0A",
"Y  c #655807",
"T  c #6A5D16",
"R  c #695E1B",
"E  c #645B19",
"W  c #786807",
"Q  c #7C740B",
"!  c #6D6313",
"~  c #65641A",
"^  c #746717",
"/  c #7C7A1B",
"(  c #7F731A",
")  c #6B620B",
"_  c #484624",
"`  c #534D25",
"'  c #524B2C",
"]  c #5B4E2B",
"[  c #5C542B",
"{  c #585426",
"}  c #49453E",
"|  c #474A38",
" . c #544938",
".. c #4B513A",
"X. c #5B5533",
"o. c #5A5B32",
"O. c #575639",
"+. c #4E5924",
"@. c #635B22",
"#. c #635B2C",
"$. c #695E33",
"%. c #5D6121",
"&. c #686424",
"*. c #7F6E29",
"=. c #756C25",
"-. c #6E782D",
";. c #7B772D",
":. c #6C6433",
">. c #6D6939",
",. c #766B32",
"<. c #766A39",
"1. c #7B743B",
"2. c #777337",
"3. c #393E47",
"4. c #283144",
"5. c #433C42",
"6. c #33444D",
"7. c #3E4C4A",
"8. c #3A4647",
"9. c #374656",
"0. c #2F4048",
"q. c #3C4D69",
"w. c #444343",
"e. c #484A48",
"r. c #584847",
"t. c #4E5546",
"y. c #5A524D",
"u. c #424759",
"i. c #5B5D5C",
"p. c #585755",
"a. c #665756",
"s. c #624E4F",
"d. c #5F625D",
"f. c #777741",
"g. c #7E6F40",
"h. c #5C5E60",
"j. c #5D6061",
"k. c #636364",
"l. c #6A6C6A",
"z. c #737378",
"x. c #7B7B7B",
"c. c #767776",
"v. c #816C01",
"b. c #8B7502",
"n. c #8E7B04",
"m. c #82740C",
"M. c #84790B",
"N. c #897405",
"B. c #937C03",
"V. c #937B09",
"C. c #91770B",
"Z. c #827415",
"A. c #8E7D16",
"S. c #84751A",
"D. c #8B7B1C",
"F. c #867617",
"G. c #927D12",
"H. c #917C1B",
"J. c #867C2C",
"K. c #857725",
"L. c #847B38",
"P. c #837943",
"I. c #7B8234",
"U. c #9C8404",
"Y. c #92820D",
"T. c #9B840C",
"R. c #9B8A06",
"E. c #8C8116",
"W. c #93831C",
"Q. c #948A1B",
"!. c #9B8A18",
"~. c #9A8613",
"^. c #9E9119",
"/. c #A48B0B",
"(. c #A58D07",
"). c #A49404",
"_. c #A89608",
"`. c #B39D0C",
"'. c #B49905",
"]. c #A18D1A",
"[. c #AD9A13",
"{. c #A4931B",
"}. c #AA9717",
"|. c #B69C16",
" X c #B3A204",
".X c #BAA404",
"XX c #B6A30C",
"oX c #B4A214",
"OX c #B6A217",
"+X c #8B8822",
"@X c #918323",
"#X c #948A21",
"$X c #988A29",
"%X c #9D9426",
"&X c #8B8438",
"*X c #938837",
"=X c #9B933C",
"-X c #A68D25",
";X c #AC9C24",
":X c #A79627",
">X c #B29D25",
",X c #A89A38",
"<X c #ADA42B",
"1X c #B4A229",
"2X c #B5A534",
"3X c #C2AA24",
"4X c #8A8B44",
"5X c #999744",
"6X c #918746",
"7X c #A49B4A",
"8X c #B3A440",
"9X c #7D8183",
"0X c #888889",
"qX c #908E8C",
"wX c #9B9899",
"eX c #A4A49F",
"rX c #9D9DA1",
"tX c #A49DA2",
"yX c #A9A5A8",
"uX c #A5AAB0",
"iX c None",
/* pixels */
"iXiXiXiXiXiXiXiXiXiXiXiXiXiXiXiXiXiXiXiXiXiXiXiXiXiXiXiXiXiXiXiXiXiXiXiXiXiXiXiXiXiXiXiXiXiXiXiXiXiX",
"iXiXiXiXiXiXiXiXiXiXiXiXiXiXiXiXiXiXiXiXiXiXiXiXiXiXiXiXiXiXiXiXiXiXiXiXiXiXiXiXiXiXiXiXiXiXiXiXiXiX",
"iXiXiXiXiXiXiXiXiXiXiXiXiXiXiXiXiXiXiXiXiXiXiXiXiXiXiXiXiXiXiXiXiXiXiXiXiXiXiXiXiXiXiXiXiXiXiXiXiXiX",
"iXiXiXiXiXiXiXiXiXiXiXiXiXiXiXiXiXiXiXiXiXiXiXiXiXiXiXiXiXiXiXiXiXiXiXiXiXiXiXiXiXiXiXiXiXiXiXiXiXiX",
"iXiXiXiXiXiXiXiXiXiXiXiXiXiXiXiXiXiXiXiXiXiXiXiXiXiXiXiXiXiXiXiXiXiXiXiXiXiXiXiXiXiXiXiXiXiXiXiXiXiX",
"iXiXiXiXiXiXiXiXiXiXiXiXiXiXiXiXiXiXiXiXiXiXiXiXiXiXiXiXiXiXiXiXiXiXiXiXiXiXiXiXiXiXiXiXiXiXiXiXiXiX",
"iXiXiXiXiXiXiXiXiXiXiXiXiXiXiXiXiXiXiXiXiXiXiXiXiXiXiXiXiXiXiXiXiXiXiXiXiXiXiXiXiXiXiXiXiXiXiXiXiXiX",
"iXiXiXiXiXiXiXiXiXiXiXiXiXiXiXiXiXiXiXiXiXiXiXiXiXiXiXiXiXiXiXiXiXiXiXiXiXiXiXiXiXiXiXiXiXiXiXiXiXiX",
"iXiXiXiXiXiXiXiXiXiXiXiXiXiXiXiXiXiXiXiXiXiXiXiXiXiXiXiXiXiXiXiXiXiXiXiXiXiXiXiXiXiXiXiXiXiXiXiXiXiX",
"iXiXiXiXiXiXiXiXiXiXiXiXiXiXiXiXiXiXiXiXiXiXiXiXiXiXiXiXiXiXiXiXiXiXiXiXiXiXiXiXiXiXiXiXiXiXiXiXiXiX",
"iXiXiXiXiXiXiXiXiXiXiXiXiXiXiXiXiXiXiXiXiX7X7X5X5X5X5X6X&X&X6X,.,.2.,.iXiXiXiXiXiXiXiXiXiXiXiXiXiXiX",
"iXiXiXiXiXiXiXiXiXiXiXiXiXiX$X:X-X].-X}.;X,X^ #.>.>.f.g.&.=.D.M.M.M.Z.D.D.H.H.W.Q.:X=XiXiXiXiXiXiXiX",
"iXiXiXiXiXiXiXiXiXiXiXiXiXiX<X_.`.`.|.>X,XC . * y + @ @ . K J.W.W.~./.Y.Y.Q.Y.R.).[.W.I iXiXiXiXiXiX",
"iXiXiXiXiXiXiXiXiXiXiXiXiX=XA.V.3X|.XX|.-XT = = : < < % O 1 ^ Z.G./.;XZ.G %.S.Q.}.{.^ I 0 iXiXiXiXiX",
"iXiXiXiXiXiXiXiXiXiXiXiX;.) W $X3XOX.X'.'.|.}.;X:X~.G.D.Q Q m.Q N.G.,X! 3 . 1 I *XJ.I ' h iXiXiXiXiX",
"iXiXiXiXiXiXiXiXiXiX: _ P J S.;X|.|.'.'.(./.T.B.n.b.C.Z.Q Q N.b.N.~.$XI : + 7 e w #.9 C d iXiXiXiXiX",
"iXiXiXiXiXiXiXiXiXiXK ' X.E ,XoX'.`.}.`.(.U.B.B.n.b.v.v.W v.v.V.T.}.$XL - + s f k w 9 # n iXiXiXiXiX",
"iXiXiXiXiXiXiXiXiXiXF  ._ T <XoX XoX}.`._.).)./.T.V.n.b.V.C.b.B.T.}.K.L - i ; f h C < : F iXiXiXiXiX",
"iXiXiXiXiXiXiXiXiXiX| _ N D.<XOXoXoX|.|.|././.Y.C.G.~.T.n.b.B.V./.;XQ 3 - t ; ; k r > : 4 iXiXiXiXiX",
"iXiXiXiXiXiXiXiXiXiXh j #.,X<X2X2X,X<X%X#X@X@XD.Z.Z.F.F.Q m.D.-X%X<X#XG - u ; 7 k j > : O iXiXiXiXiX",
"iXiXiXiXiXiXiXiXiXiXq +.4X%.3 0 e , , 2 1 , , , , , : , 6 q e 2 2 G 1.%._ 6 h h k 0 , 4   iXiXiXiXiX",
"iXiXiXiXiXiXiXiXiXj o.I.I.- s a l p p p i ; t i t t i i + i a v f 0 +.2.I N e 0 k e 7 4   iXiXiXiXiX",
"iXiXiXiXiXiXiXiXiX` L.&XG 7 4.4.v g g g g a g l l l l g s s g c v d _ >.~ J r w K 0 6 -   iXiXiXiXiX",
"iXiXiXiXiXiXiXiXr ;.J.>.j D 6.6.3.M m D D D c c c c c x x x x 0.3.0.} _ I.J P 3 r , : X   iXiXiXiXiX",
"iXiXiXiXiXiXiXiX&./ &Xj u.q.9.9.9.3.3.6.6.6.6.6.6.6.6.0.0.3.9.9.9.9.7...%.~ E G 3 < :   iXiXiXiXiXiX",
"iXiXiXiXiXiXiXiX/ +X-.r e.u.8.8.3.3.3.6.7.7.7.8.8.7.7.7.D 0.0.q.q.q.q.t.o.f.J H 1 , iXiXiXiXiXiXiXiX",
"iXiXiXiXiXiXiXiXS.@XJ.I o.O.o.o.` '  .' X.X.[ o.o.o.....| ..D ....o.o.+.=.5XJ H N % iXiXiXiXiXiXiXiX",
"iXiXiXiXiXiXiX=.@X>X}.}.>X>X;X[.{.!.W.!.-X!.^.%X#X;.^ #.{ [ &./ I.+X<X^.<X<XG G 3 < iXiXiXiXiXiXiXiX",
"iXiXiXiXiXiXiXR @X1X`.`.'.'..X.XXX'.B.B.B.R.R.Y.E.) ) E ! T W m.n.).)._.>XH.N G _ # iXiXiXiXiXiXiXiX",
"iXiXiXiXiXiX:.R %X;X}.>X3X|.|.|.}.G.V.G.H.H.@XJ.K.^ R R ! Q m.~.(.'..X`.3X^ 3 _ r : iXiXiXiXiXiXiXiX",
"iXiXiXiXiXiX<.! Q.%X^.).(.R.R.~.T.Y.V.Y.G.A.F.K.D.( Q m.Q m.N.~.). X'.|.8XN 3 V _ o iXiXiXiXiXiXiXiX",
"iXiXiXiXiXiX:.~ / E.E.!.W.~.G.A.W.@XD.S.( *.K.*.*.*.K.K.K.+XW.%X{.[.{.,XJ.8 r r 7 X iXiXiXiXiXiXiXiX",
"iXiXiXiXiXiX' P T ^ U U U U Y Y J J H L L L P L V H B G H H H Y Y W Y ^ @.< 9 6 X X iXiXiXiXiXiXiXiX",
"iXiXiXiXiXiXO.] g.P.1.1.1.<.<.<.$.#.#.$.#.#.#.] ] ] ] [ { { @.$.$.<.,.<.f.w : e 7 X iXiXiXiXiXiXiXiX",
"iXiXiXiXiXiXk > 5 $ O % $ $ $ $ & 8 & 5 = 8 8 8 8 8 8 8 & : * * * & $ $ 6 O 4 Z + + iXiXiXiXiXiXiXiX",
"iXiXiXiXiXiXs.y.r.r.a.p.s.r. .s.a.s.r.a.Z Z Z Z Z 5.A A } w.5.5.5.5.} n A } w.e.+ X iXiXiXiXiXiXiXiX",
"iXiXiXiXiXiXc.eXeXuXuXrXtXwXwXtXyXtXyXtXqXqXqX0XP.9Xx.0X0Xz.z.z.z.z.6XqXrXz.k.d + iXiXiXiXiXiXiXiXiX",
"iXiXiXiXiXiXp.k.l.z.9X9X0X9Xx.c.c.9X0Xz.i.p.i.i.z.k.h.h.j.p.h.k.k.a.d.i.u.3.e.f   iXiXiXiXiXiXiXiXiX",
"iXiXiXiXiXiXb m m 8.m b b m b b w.w.w.m b m b b 3.b v d d b b d v d d b 3.b f iXiXiXiXiXiXiXiXiXiXiX",
"iXiXiXiXiXiXiXiXiXiXiXiXiXiXiXiXiXiXiXiXiXiXiXiXiXiXiXiXiXiXiX  iXiXiXiXiXiXiXiXiXiXiXiXiXiXiXiXiXiX",
"iXiXiXiXiXiXiXiXiXiXiXiXiXiXiXiXiXiXiXiXiXiXiXiXiXiXiXiXiXiXiXiXiXiXiXiXiXiXiXiXiXiXiXiXiXiXiXiXiXiX",
"iXiXiXiXiXiXiXiXiXiXiXiXiXiXiXiXiXiXiXiXiXiXiXiXiXiXiXiXiXiXiXiXiXiXiXiXiXiXiXiXiXiXiXiXiXiXiXiXiXiX",
"iXiXiXiXiXiXiXiXiXiXiXiXiXiXiXiXiXiXiXiXiXiXiXiXiXiXiXiXiXiXiXiXiXiXiXiXiXiXiXiXiXiXiXiXiXiXiXiXiXiX",
"iXiXiXiXiXiXiXiXiXiXiXiXiXiXiXiXiXiXiXiXiXiXiXiXiXiXiXiXiXiXiXiXiXiXiXiXiXiXiXiXiXiXiXiXiXiXiXiXiXiX",
"iXiXiXiXiXiXiXiXiXiXiXiXiXiXiXiXiXiXiXiXiXiXiXiXiXiXiXiXiXiXiXiXiXiXiXiXiXiXiXiXiXiXiXiXiXiXiXiXiXiX",
"iXiXiXiXiXiXiXiXiXiXiXiXiXiXiXiXiXiXiXiXiXiXiXiXiXiXiXiXiXiXiXiXiXiXiXiXiXiXiXiXiXiXiXiXiXiXiXiXiXiX",
"iXiXiXiXiXiXiXiXiXiXiXiXiXiXiXiXiXiXiXiXiXiXiXiXiXiXiXiXiXiXiXiXiXiXiXiXiXiXiXiXiXiXiXiXiXiXiXiXiXiX",
"iXiXiXiXiXiXiXiXiXiXiXiXiXiXiXiXiXiXiXiXiXiXiXiXiXiXiXiXiXiXiXiXiXiXiXiXiXiXiXiXiXiXiXiXiXiXiXiXiXiX",
"iXiXiXiXiXiXiXiXiXiXiXiXiXiXiXiXiXiXiXiXiXiXiXiXiXiXiXiXiXiXiXiXiXiXiXiXiXiXiXiXiXiXiXiXiXiXiXiXiXiX",
"iXiXiXiXiXiXiXiXiXiXiXiXiXiXiXiXiXiXiXiXiXiXiXiXiXiXiXiXiXiXiXiXiXiXiXiXiXiXiXiXiXiXiXiXiXiXiXiXiXiX"
};
