/* XPM */
static char *result[] = {
/* columns rows colors chars-per-pixel */
"50 50 41 1 ",
"  c #19120D",
". c #1E1611",
"X c #211711",
"o c #231B15",
"O c #291E17",
"+ c #261E18",
"@ c #291F19",
"# c #27201A",
"$ c #2C231C",
"% c #30251E",
"& c #2F2620",
"* c #312721",
"= c #342A24",
"- c #382E27",
"; c #372E28",
": c #392F28",
"> c #3D322B",
", c #41362F",
"< c #413730",
"1 c #453A33",
"2 c #493E37",
"3 c #4A3F38",
"4 c #4D423A",
"5 c #51463E",
"6 c #54493F",
"7 c #564A41",
"8 c #594D45",
"9 c #5C5047",
"0 c #5E5249",
"q c #62554C",
"w c #65584F",
"e c #675A50",
"r c #6A5D53",
"t c #6F6157",
"y c #6F6258",
"u c #706357",
"i c #72655A",
"p c #76695E",
"a c #786B5F",
"s c #7B6D61",
"d c #7E7164",
/* pixels */
"tssst4re730337,rr82223edtr>7isrt1*qypr43riypsi8257",
"rtutte,422222:7r332228sdst>2qre7>4yyyyrqirrysdie8e",
"48ww54-<21,::*1r8rw070sddt3,242=24rreruurq87qyyyye",
"222432,*:,qeer78yttytiissrt.$@o.238r8589325325w933",
"1222221+0ypdpyr:rtttrq843q8.qii=;<97eq328wy822222*",
"-22222$7ytsdsuu<27852222<1$X0si3>*+=4722qrw3222<o@",
"9:11>--8yysdsrr8*,2222:*<.@@3ss7885:=>228r331;<9u8",
"dq1.9555yyyrqwq72*@**@1ii*8050srttw8<*-><1<*X7p8ss",
"pur*sqr>ryr7222>*>rrwiss854rrritr84:>qe4+<qr>eq7rr",
"q907wss1<74123>=8ssitrre>s01wrrr4>&1idds3qrt27uu93",
"22381rr3$:3333=:28rtrr0<idi*4qr71X<29e84:qee5$4521",
"233:=343&+&*::@@123531$8sdi><22>-8r,12,>=1233:o21;",
"223$+333=32211<o@>221$<7rirr:::@6qd6o1qpq>22,>1$o*",
"3>*=;$*;5ppissw*0q>:$@1257522*231>>-8ddds8--7sppsr",
"=>4q<*4rssuir9<3dsrrrr<:22222:$22224ipeq45-rerpssd",
"eery>19ssurr7*:2r98q72<+:1<<::7:*=>>qw4222>85358wi",
"sqru<14q072-:72,$o<22832<,1<0saq5r5,q32222=21,,<<2",
"r73q8>32<*%3riq<:$qsdse79qrq2iirryq:tw2222%==,2o*%",
"8334r$&$@*tsdp9:i:0sddiisssy,35rr8:5aiw851$5rip213",
"4333w3>23*tdir*2r:5ysssdddsi2,253:@tddttr88isds059",
"3322qr;371<ew*-3q8:8yiyipssi7o1<:7:qipye5%0sdsr1rs",
"3227yr*7ir<o*,*30r:13753378e<o:7ie:25533oO7ue7-6ru",
"22234>*7sp8*qi%29y8*222222233Xedst:222=o<:3521X,39",
"2221&*8sdp4qds2-222>*222222211iiy8:1<*:*t<2:28t,13",
"*1>&20ids77sds5O,222X@<2222212rwq3<*@793u3:9sss8$<",
"@.>3278e77idy87@+%=:7-X*-***X-22222-3s0:w:wssss7*4",
"*>;>3323:eyr52<:217qir:82222<*1232:3sdw;3>ripiu<rd",
"732>;>23*1732=:22etssse2re880r2:3-*ydsr,<>7773>qdd",
"yr833:=:@*<*@-r32rsddst3idsyrri:-e8<rss8$,2222:rpu",
"ditrq7<9y853X7i32wisdst8isse27r3yi13esds7-122::783",
"diryy78sditt%8y32qyyiiy33ri32232w7-3qissdy5:%$-2=$",
"pe498:5si00y3,8223qyett,,33222*822*3337qyur<psq2&@",
"q32<o=23228yt6*2222337q;**32;@;33<.>2222231qyqew7+",
"31:o$=,2227877-@::<<>*:12:**o:*>=+;*<22232-w712<,3",
"28i9:74>11<-$*><85@:<133333>:y814q<q>;-:**@1<:2qsd",
"pdds>4e9,>=->228s5<23334783:7rpuru1r923353:-,0eere",
"pssp:7ssitq,25qtde-2qyisss831wssii1dpwrisr-,<22233",
"7r8;,9ssiwe5<qiisi2,esddssu3237895udsrsdprO0<$=*$$",
"23<X1387523<<qipyqe<qrryirr>122223dsrrsdiq*0re07=>",
"31,t11322>@o2rtre27r=*-->73X*22:+7pi97rir2,27rr,qr",
">=pdu-<:,5<O<6q53227,8e3--18<*=,%2q722e9:o *1332us",
"pq7sp>oqtttr:2222222:uiq:7iptwqr7,2222<*,7w3,:*<ei",
"rt2r8>qttspte,2222,1psu9,:3rtttir:222<2wsdsieee-56",
"0t<e7,etpdddiq$,-O:0ii87832:8tidsy*:@@qiisdsttt8:2",
"eq,ttr,qridsuq@*= <253:e2233,6tddi<%@,,3erittiri:=",
"q<<570o=37qew:77tq,222282228,2qtpw%:89*1237073e0-3",
"**::2=88-2333:ryts7O12,0q2276,251*,rai5o2222222::e",
"uiqe6-78::<3:<r8ri2w73,1ew85,%==*,<3rit,-<2222,*0p",
"i727r:2<ti3%O2r3we7dttr-3332,5230r&20rw2r7*&2*<rps",
"yyiyi5,<pdar3,t3wq8t85w,,22=w03wdq-272=<wii8=@2rys"
};
