/* XPM */
static char *result[] = {
/* columns rows colors chars-per-pixel */
"50 50 89 1 ",
"  c #185C18",
". c #186318",
"X c #186D18",
"o c #197318",
"O c #197A18",
"+ c #3F613F",
"@ c #3E773E",
"# c #3D7B3D",
"$ c #456745",
"% c #457E45",
"& c #597E59",
"* c #6D6D6D",
"= c #747474",
"- c #777778",
"; c #7C7C7C",
": c #807F7F",
"> c #1A8318",
", c #1A8B18",
"< c #199418",
"1 c #199B18",
"2 c #228719",
"3 c #218F18",
"4 c #209718",
"5 c #219B18",
"6 c #19A518",
"7 c #19AD18",
"8 c #1AB318",
"9 c #1BBD18",
"0 c #23A118",
"q c #28A619",
"w c #26AC18",
"e c #29AA1A",
"r c #2AB21A",
"t c #26BA18",
"y c #2BBB18",
"u c #3E813E",
"i c #3E8B3D",
"p c #3F943E",
"a c #2DBE24",
"s c #44873E",
"d c #468C3E",
"f c #40943E",
"g c #1BC418",
"h c #1DCB18",
"j c #1FD118",
"k c #2DC518",
"l c #20CD19",
"z c #2FC918",
"x c #30CC18",
"c c #21D518",
"v c #21D818",
"b c #33D51B",
"n c #35DC1C",
"m c #2DC724",
"M c #2CC923",
"N c #29D422",
"B c #2DDA25",
"V c #39D625",
"C c #30D129",
"Z c #33DA2B",
"A c #35E02C",
"S c #47E239",
"D c #49E53C",
"F c #458745",
"G c #428D40",
"H c #479246",
"J c #4A9744",
"K c #479B44",
"L c #4C9A45",
"P c #529F4C",
"I c #4CA147",
"U c #4EA34A",
"Y c #51A64D",
"T c #57A551",
"R c #59A753",
"E c #56AC51",
"W c #6D8F6D",
"Q c #6F916F",
"! c #729371",
"~ c #729B71",
"^ c #818181",
"/ c #849584",
"( c #889887",
") c #979797",
"_ c #9D9D9D",
"` c #9BAB9A",
"' c #A3A3A3",
"] c #ABABAB",
"[ c #B1B1B1",
/* pixels */
"_))_))))___''_'___'''''_____'''''`_'_''''''']']]]*",
"_&HPPPPPPPPPPPPPPPPPPIHF%KEEEEEEEEEEETEETEEEEUG$(-",
")G8mmmmmMmMhmMmCmCmmMM81>gBAAAAAAZBBAZAAAAAAAB8 !-",
"'JMlm9877877877777778g7>.jvvNjgghhhgghhglghhvh8 !;",
"]HM98867777777777777881o vjhjhggggg99g9gggggh91 !;",
"'KM7776677777777777777OX vhgggggggg99g99ggggg6> !-",
"]JM7777771677667777777>X vhgggggggggggggggggg6> !-",
"'JM7777776777777777776OX vhgggg99gggggggggggg6> !;",
"'Jm6667777777777777666OX vg999g9gggggggggg9990O !;",
"'Ja>O>7777777777777>oOO. v6,,7g9gggggggggg6,,,> !-",
"]G7OoO,,,,,,,,,,,,,OOoOX 6<,,1611616111111<,>,2 !-",
"]F1ooXXXXXXXXXXoXXoXXoo. OOOOOOOOOOOOOOOOOOOOOO !-",
"]@>.                                    .       !;",
"]srrrrrra84O X,87877w78787877778w6O.X2wrtwrrrrq.~-",
"]LVbbbnbbny, ,8vvvjjjjchcljjjjjjcl5XorbnnnbnbbzX~;",
"]TDxxxxxznbq wvvvhggggggggggggggjcgX2nnnnzzzxxy.~-",
"]RDxxxxxxxw, 7jghgggggggg89gggggg9<.>nbxxxxxxxyX~;",
"]RDxzkxxxzw> 8jgggg99gggg9gg999gg9,.2nxxxxzzxxyX~=",
"]RSbyyxxxxw> 8jgggg99ggggggg888gg9,.2nxxzxktxxyX~=",
"]RSxxxxxxz0> 8hgggggggggggggggggg9,.2nxxxzzzxxy.~:",
"]RSbxxxyrr0> 7g768ggggggggggggg666>.2nt8rzxxxxyX~;",
"'RSxxyzq444> 69,,6g999g9999gg98,,,,.2x014zzzkzyX~=",
"[dxqqqq5554> ><,,,<<<<<<<<<<<<<,,,,.o01<4000003X~;",
"]sqOOOoOOOOX XooooooooooooXoooooooo..OOOOOOOOOO.Q-",
"]@O.    .. .  .  . .                            Q:",
"]dlvvvvvvjjvvjvvjvjvjj<o O69g9g9gg999g9gg99g91o Q-",
"[Invvchhhhhghhhhhhhhjj8, 78gg87888777888888897< !:",
"]UAvcjggggggggggggggjj9, 999987777777777777798< !-",
"]UZhggg98ggggggg988ggg<o g8777777776677777777<O !-",
"[YAhggggggggggggg9gggg<o g8777777777677776777<o !-",
"]YAgggggggggggggggggg9<o g8777777777777776677<o !-",
"]UAggggggg88gggggggggg<X 987777766777766777774o W:",
"]UZ111gggg9ggggg9gg6<<,o 91>>17777777777771>>Oo Q:",
"'UC<,<9998999899889,,,,o 8,OO<666666666666,OOOo Q;",
"'pt<,,,,,,,,,,>,,,,,,,,o oOoOOOOOoooOoOoOoOOOoo Q;",
"'#,..................... .... ...... ... .. ... Q;",
"_u1>>>>>>>o. .O>22222223,>322232>>o..X>>>,,,>,O Q;",
"`fhjvvvvvv7O ,rnnnnnnnnnnnnnnnnnnx5.X<lvvjjvjcg Q;",
"_LZhgghglvg1 ebnnbxxxxxxzxxxxxxxnbkX>lccvggggg8 Q:",
"_PAhgg9ggc9< rnnbxxzzxxxzzxxxzzxbbtX2cjjjggggg8 Q:",
"_UAhgg89gg6O rbxxkttkzxxxxxxzkyzzk4.>vggggggg96 Q:",
"_IAg98gggg1O rbxxzzzxzzxxtkzzxxxzk4X,vggg89ggg8 Q;",
"_UAgg9gggg1O rnxzxzzzkzxzkzxzxxxzk4.>cggg9gggg8 !:",
"'UAgggg9981O ebkkzzxkyzzzzzxxxzkky1.>c999ggggg8 Q;",
"'IAhggg7,,,O rm54rzxxxxxzzzzxxk5554.>j1,<ggggg8 Q:",
"'KM76661,,,O 5e540wtrwrrrrrrree4444.O7<,,666661 Q;",
"'i7>>>>>>>>O O33,333333,3,<3,4,,333..>>>>>>>>>O !:",
"]+                                              ~;",
"[/QQQWWWWWWWWWQQWWQWWWWWQQWQQWQQWWWWWWWWQQWQQWQQ`;",
"^^^^^^^^^^^^^;;;;;;^;^;;;^;;;;;^:;:;;:;;;;;;;;;:;*"
};
